  0
SECTION
  2
HEADER
  9
$ACADVER
  1
AC1032
  9
$ACADMAINTVER
 90
      248
  9
$DWGCODEPAGE
  3
ANSI_1252
  9
$REQUIREDVERSIONS
160
                 0
  9
$INSBASE
 10
0.0
 20
0.0
 30
0.0
  9
$EXTMIN
 10
-276.8935506270683
 20
-842.8317639344458
 30
0.0
  9
$EXTMAX
 10
543.7622302358589
 20
363.4832982879057
 30
0.0
  9
$LIMMIN
 10
0.0
 20
0.0
  9
$LIMMAX
 10
12.0
 20
9.0
  9
$ORTHOMODE
 70
     0
  9
$REGENMODE
 70
     1
  9
$FILLMODE
 70
     1
  9
$QTEXTMODE
 70
     0
  9
$MIRRTEXT
 70
     0
  9
$LTSCALE
 40
1.0
  9
$ATTMODE
 70
     1
  9
$TEXTSIZE
 40
0.2
  9
$TRACEWID
 40
0.05
  9
$TEXTSTYLE
  7
Standard
  9
$CLAYER
  8
0
  9
$CELTYPE
  6
ByLayer
  9
$CECOLOR
 62
   256
  9
$CELTSCALE
 40
1.0
  9
$DISPSILH
 70
     0
  9
$DIMSCALE
 40
1.0
  9
$DIMASZ
 40
0.18
  9
$DIMEXO
 40
0.0625
  9
$DIMDLI
 40
0.38
  9
$DIMRND
 40
0.0
  9
$DIMDLE
 40
0.0
  9
$DIMEXE
 40
0.18
  9
$DIMTP
 40
0.0
  9
$DIMTM
 40
0.0
  9
$DIMTXT
 40
0.18
  9
$DIMCEN
 40
0.09
  9
$DIMTSZ
 40
0.0
  9
$DIMTOL
 70
     0
  9
$DIMLIM
 70
     0
  9
$DIMTIH
 70
     1
  9
$DIMTOH
 70
     1
  9
$DIMSE1
 70
     0
  9
$DIMSE2
 70
     0
  9
$DIMTAD
 70
     0
  9
$DIMZIN
 70
     0
  9
$DIMBLK
  1

  9
$DIMASO
 70
     1
  9
$DIMSHO
 70
     1
  9
$DIMPOST
  1

  9
$DIMAPOST
  1

  9
$DIMALT
 70
     0
  9
$DIMALTD
 70
     2
  9
$DIMALTF
 40
25.4
  9
$DIMLFAC
 40
1.0
  9
$DIMTOFL
 70
     0
  9
$DIMTVP
 40
0.0
  9
$DIMTIX
 70
     0
  9
$DIMSOXD
 70
     0
  9
$DIMSAH
 70
     0
  9
$DIMBLK1
  1

  9
$DIMBLK2
  1

  9
$DIMSTYLE
  2
Standard
  9
$DIMCLRD
 70
     0
  9
$DIMCLRE
 70
     0
  9
$DIMCLRT
 70
     0
  9
$DIMTFAC
 40
1.0
  9
$DIMGAP
 40
0.09
  9
$DIMJUST
 70
     0
  9
$DIMSD1
 70
     0
  9
$DIMSD2
 70
     0
  9
$DIMTOLJ
 70
     1
  9
$DIMTZIN
 70
     0
  9
$DIMALTZ
 70
     0
  9
$DIMALTTZ
 70
     0
  9
$DIMUPT
 70
     0
  9
$DIMDEC
 70
     4
  9
$DIMTDEC
 70
     4
  9
$DIMALTU
 70
     4
  9
$DIMALTTD
 70
     2
  9
$DIMTXSTY
  7
Standard
  9
$DIMAUNIT
 70
     0
  9
$DIMADEC
 70
     0
  9
$DIMALTRND
 40
0.0
  9
$DIMAZIN
 70
     0
  9
$DIMDSEP
 70
    46
  9
$DIMATFIT
 70
     3
  9
$DIMFRAC
 70
     0
  9
$DIMLDRBLK
  1

  9
$DIMLUNIT
 70
     4
  9
$DIMLWD
 70
    -2
  9
$DIMLWE
 70
    -2
  9
$DIMTMOVE
 70
     0
  9
$DIMFXL
 40
1.0
  9
$DIMFXLON
 70
     0
  9
$DIMJOGANG
 40
0.7853981633974483
  9
$DIMTFILL
 70
     0
  9
$DIMTFILLCLR
 70
     0
  9
$DIMARCSYM
 70
     0
  9
$DIMLTYPE
  6

  9
$DIMLTEX1
  6

  9
$DIMLTEX2
  6

  9
$DIMTXTDIRECTION
 70
     0
  9
$LUNITS
 70
     4
  9
$LUPREC
 70
     4
  9
$SKETCHINC
 40
0.1
  9
$FILLETRAD
 40
0.0
  9
$AUNITS
 70
     0
  9
$AUPREC
 70
     0
  9
$MENU
  1
.
  9
$ELEVATION
 40
0.0
  9
$PELEVATION
 40
0.0
  9
$THICKNESS
 40
0.0
  9
$LIMCHECK
 70
     0
  9
$CHAMFERA
 40
0.0
  9
$CHAMFERB
 40
0.0
  9
$CHAMFERC
 40
0.0
  9
$CHAMFERD
 40
0.0
  9
$SKPOLY
 70
     0
  9
$TDCREATE
 40
2460404.438958333
  9
$TDUCREATE
 40
2460404.313958334
  9
$TDUPDATE
 40
2460404.438958333
  9
$TDUUPDATE
 40
2460404.313958334
  9
$TDINDWG
 40
0.0000000000
  9
$TDUSRTIMER
 40
0.0000000000
  9
$USRTIMER
 70
     1
  9
$ANGBASE
 50
0.0
  9
$ANGDIR
 70
     0
  9
$PDMODE
 70
     0
  9
$PDSIZE
 40
0.0
  9
$PLINEWID
 40
0.0
  9
$SPLFRAME
 70
     0
  9
$SPLINETYPE
 70
     6
  9
$SPLINESEGS
 70
     8
  9
$HANDSEED
  5
1CA
  9
$SURFTAB1
 70
     6
  9
$SURFTAB2
 70
     6
  9
$SURFTYPE
 70
     6
  9
$SURFU
 70
     6
  9
$SURFV
 70
     6
  9
$UCSBASE
  2

  9
$UCSNAME
  2

  9
$UCSORG
 10
0.0
 20
0.0
 30
0.0
  9
$UCSXDIR
 10
1.0
 20
0.0
 30
0.0
  9
$UCSYDIR
 10
0.0
 20
1.0
 30
0.0
  9
$UCSORTHOREF
  2

  9
$UCSORTHOVIEW
 70
     0
  9
$UCSORGTOP
 10
0.0
 20
0.0
 30
0.0
  9
$UCSORGBOTTOM
 10
0.0
 20
0.0
 30
0.0
  9
$UCSORGLEFT
 10
0.0
 20
0.0
 30
0.0
  9
$UCSORGRIGHT
 10
0.0
 20
0.0
 30
0.0
  9
$UCSORGFRONT
 10
0.0
 20
0.0
 30
0.0
  9
$UCSORGBACK
 10
0.0
 20
0.0
 30
0.0
  9
$PUCSBASE
  2

  9
$PUCSNAME
  2

  9
$PUCSORG
 10
0.0
 20
0.0
 30
0.0
  9
$PUCSXDIR
 10
1.0
 20
0.0
 30
0.0
  9
$PUCSYDIR
 10
0.0
 20
1.0
 30
0.0
  9
$PUCSORTHOREF
  2

  9
$PUCSORTHOVIEW
 70
     0
  9
$PUCSORGTOP
 10
0.0
 20
0.0
 30
0.0
  9
$PUCSORGBOTTOM
 10
0.0
 20
0.0
 30
0.0
  9
$PUCSORGLEFT
 10
0.0
 20
0.0
 30
0.0
  9
$PUCSORGRIGHT
 10
0.0
 20
0.0
 30
0.0
  9
$PUCSORGFRONT
 10
0.0
 20
0.0
 30
0.0
  9
$PUCSORGBACK
 10
0.0
 20
0.0
 30
0.0
  9
$USERI1
 70
     0
  9
$USERI2
 70
     0
  9
$USERI3
 70
     0
  9
$USERI4
 70
     0
  9
$USERI5
 70
     0
  9
$USERR1
 40
0.0
  9
$USERR2
 40
0.0
  9
$USERR3
 40
0.0
  9
$USERR4
 40
0.0
  9
$USERR5
 40
0.0
  9
$WORLDVIEW
 70
     1
  9
$SHADEDGE
 70
     3
  9
$SHADEDIF
 70
    70
  9
$TILEMODE
 70
     1
  9
$MAXACTVP
 70
    64
  9
$PINSBASE
 10
0.0
 20
0.0
 30
0.0
  9
$PLIMCHECK
 70
     0
  9
$PEXTMIN
 10
1.000000000000000E+20
 20
1.000000000000000E+20
 30
1.000000000000000E+20
  9
$PEXTMAX
 10
-1.000000000000000E+20
 20
-1.000000000000000E+20
 30
-1.000000000000000E+20
  9
$PLIMMIN
 10
0.0
 20
0.0
  9
$PLIMMAX
 10
12.0
 20
9.0
  9
$UNITMODE
 70
     0
  9
$VISRETAIN
 70
     1
  9
$PLINEGEN
 70
     0
  9
$PSLTSCALE
 70
     1
  9
$TREEDEPTH
 70
  3020
  9
$CMLSTYLE
  2
Standard
  9
$CMLJUST
 70
     0
  9
$CMLSCALE
 40
1.0
  9
$PROXYGRAPHICS
 70
     1
  9
$MEASUREMENT
 70
     0
  9
$CELWEIGHT
370
    -1
  9
$ENDCAPS
280
     0
  9
$JOINSTYLE
280
     0
  9
$LWDISPLAY
290
     0
  9
$INSUNITS
 70
     1
  9
$HYPERLINKBASE
  1

  9
$STYLESHEET
  1

  9
$XEDIT
290
     1
  9
$CEPSNTYPE
380
     0
  9
$PSTYLEMODE
290
     1
  9
$FINGERPRINTGUID
  2
{A2865BA9-1FEF-3343-ADF0-B75703F709E7}
  9
$VERSIONGUID
  2
{932960EC-C5E8-D94F-85EC-454DA42563F1}
  9
$EXTNAMES
290
     1
  9
$PSVPSCALE
 40
0.0
  9
$OLESTARTUP
290
     0
  9
$SORTENTS
280
   127
  9
$INDEXCTL
280
     0
  9
$HIDETEXT
280
     1
  9
$XCLIPFRAME
280
     2
  9
$HALOGAP
280
     0
  9
$OBSCOLOR
 70
   257
  9
$OBSLTYPE
280
     0
  9
$INTERSECTIONDISPLAY
280
     0
  9
$INTERSECTIONCOLOR
 70
   257
  9
$DIMASSOC
280
     2
  9
$PROJECTNAME
  1

  9
$CAMERADISPLAY
290
     0
  9
$LENSLENGTH
 40
50.0
  9
$CAMERAHEIGHT
 40
0.0
  9
$STEPSPERSEC
 40
2.0
  9
$STEPSIZE
 40
6.0
  9
$3DDWFPREC
 40
2.0
  9
$PSOLWIDTH
 40
0.25
  9
$PSOLHEIGHT
 40
4.0
  9
$LOFTANG1
 40
1.570796326794896
  9
$LOFTANG2
 40
1.570796326794896
  9
$LOFTMAG1
 40
0.0
  9
$LOFTMAG2
 40
0.0
  9
$LOFTPARAM
 70
     7
  9
$LOFTNORMALS
280
     1
  9
$LATITUDE
 40
37.795
  9
$LONGITUDE
 40
-122.394
  9
$NORTHDIRECTION
 40
0.0
  9
$TIMEZONE
 70
 -8000
  9
$LIGHTGLYPHDISPLAY
280
     1
  9
$TILEMODELIGHTSYNCH
280
     1
  9
$CMATERIAL
347
11
  9
$SOLIDHIST
280
     0
  9
$SHOWHIST
280
     1
  9
$DWFFRAME
280
     2
  9
$DGNFRAME
280
     0
  9
$REALWORLDSCALE
290
     1
  9
$INTERFERECOLOR
 62
     1
  9
$INTERFEREOBJVS
345
33
  9
$INTERFEREVPVS
346
30
  9
$CSHADOW
280
     0
  9
$SHADOWPLANELOCATION
 40
0.0
  0
ENDSEC
  0
SECTION
  2
CLASSES
  0
CLASS
  1
ACDBDICTIONARYWDFLT
  2
AcDbDictionaryWithDefault
  3
ObjectDBX Classes
 90
        0
 91
        1
280
     0
281
     0
  0
CLASS
  1
MATERIAL
  2
AcDbMaterial
  3
ObjectDBX Classes
 90
     1153
 91
        3
280
     0
281
     0
  0
CLASS
  1
VISUALSTYLE
  2
AcDbVisualStyle
  3
ObjectDBX Classes
 90
     4095
 91
       24
280
     0
281
     0
  0
CLASS
  1
SCALE
  2
AcDbScale
  3
ObjectDBX Classes
 90
     1153
 91
       17
280
     0
281
     0
  0
CLASS
  1
TABLESTYLE
  2
AcDbTableStyle
  3
ObjectDBX Classes
 90
     4095
 91
        1
280
     0
281
     0
  0
CLASS
  1
MLEADERSTYLE
  2
AcDbMLeaderStyle
  3
ACDB_MLEADERSTYLE_CLASS
 90
     4095
 91
        1
280
     0
281
     0
  0
CLASS
  1
ACDBSECTIONVIEWSTYLE
  2
AcDbSectionViewStyle
  3
ObjectDBX Classes
 90
     1025
 91
        1
280
     0
281
     0
  0
CLASS
  1
ACDBDETAILVIEWSTYLE
  2
AcDbDetailViewStyle
  3
ObjectDBX Classes
 90
     1025
 91
        1
280
     0
281
     0
  0
CLASS
  1
RASTERVARIABLES
  2
AcDbRasterVariables
  3
ISM
 90
        0
 91
        1
280
     0
281
     0
  0
CLASS
  1
DICTIONARYVAR
  2
AcDbDictionaryVar
  3
ObjectDBX Classes
 90
        0
 91
        5
280
     0
281
     0
  0
CLASS
  1
CELLSTYLEMAP
  2
AcDbCellStyleMap
  3
ObjectDBX Classes
 90
     1152
 91
        2
280
     0
281
     0
  0
CLASS
  1
SORTENTSTABLE
  2
AcDbSortentsTable
  3
ObjectDBX Classes
 90
        0
 91
        1
280
     0
281
     0
  0
ENDSEC
  0
SECTION
  2
TABLES
  0
TABLE
  2
VPORT
  5
8
330
0
100
AcDbSymbolTable
 70
     1
  0
VPORT
  5
57
330
8
100
AcDbSymbolTableRecord
100
AcDbViewportTableRecord
  2
*Active
 70
     0
 10
0.0
 20
0.0
 11
1.0
 21
1.0
 12
133.4343398043953
 22
-239.6742328232701
 13
0.0
 23
0.0
 14
1.0
 24
1.0
 15
0.0
 25
0.0
 16
0.0
 26
0.0
 36
1.0
 17
0.0
 27
0.0
 37
0.0
 40
1206.315062222351
 41
0.6802997049137911
 42
50.0
 43
0.0
 44
0.0
 50
0.0
 51
0.0
 71
     0
 72
  1000
 73
     1
 74
     1
 75
     0
 76
     0
 77
     0
 78
     0
281
     0
 65
     1
110
0.0
120
0.0
130
0.0
111
1.0
121
0.0
131
0.0
112
0.0
122
1.0
132
0.0
 79
     0
146
0.0
 60
     3
 61
     5
292
     1
282
     1
141
0.0
142
0.0
 63
   250
421
  3355443
  0
ENDTAB
  0
TABLE
  2
LTYPE
  5
5
330
0
100
AcDbSymbolTable
 70
     1
  0
LTYPE
  5
5B
330
5
100
AcDbSymbolTableRecord
100
AcDbLinetypeTableRecord
  2
ByBlock
 70
     0
  3

 72
    65
 73
     0
 40
0.0
  0
LTYPE
  5
5C
330
5
100
AcDbSymbolTableRecord
100
AcDbLinetypeTableRecord
  2
ByLayer
 70
     0
  3

 72
    65
 73
     0
 40
0.0
  0
LTYPE
  5
5D
330
5
100
AcDbSymbolTableRecord
100
AcDbLinetypeTableRecord
  2
Continuous
 70
     0
  3
Solid line
 72
    65
 73
     0
 40
0.0
  0
ENDTAB
  0
TABLE
  2
LAYER
  5
2
330
0
100
AcDbSymbolTable
 70
     5
  0
LAYER
  5
54
330
2
100
AcDbSymbolTableRecord
100
AcDbLayerTableRecord
  2
0
 70
     0
 62
     7
  6
Continuous
370
    -3
390
F
347
21
348
0
  0
LAYER
  5
84
330
2
100
AcDbSymbolTableRecord
100
AcDbLayerTableRecord
  2
A-WALL
 70
     0
 62
   113
  6
Continuous
370
    18
390
F
347
21
348
0
  0
LAYER
  5
85
330
2
100
AcDbSymbolTableRecord
100
AcDbLayerTableRecord
  2
A-FLOR
 70
     0
 62
   192
  6
Continuous
370
    18
390
F
347
21
348
0
  0
LAYER
  5
92
330
2
100
AcDbSymbolTableRecord
100
AcDbLayerTableRecord
  2
A-FLOR-PATT
 70
     0
 62
     8
  6
Continuous
370
    18
390
F
347
21
348
0
  0
LAYER
  5
AE
330
2
100
AcDbSymbolTableRecord
100
AcDbLayerTableRecord
  2
A-WALL-PATT
 70
     0
 62
   111
  6
Continuous
370
    18
390
F
347
21
348
0
  0
ENDTAB
  0
TABLE
  2
STYLE
  5
3
330
0
100
AcDbSymbolTable
 70
     2
  0
STYLE
  5
55
330
3
100
AcDbSymbolTableRecord
100
AcDbTextStyleTableRecord
  2
Standard
 70
     0
 40
0.0
 41
1.0
 50
0.0
 71
     0
 42
0.2
  3
txt
  4

  0
STYLE
  5
5A
330
3
100
AcDbSymbolTableRecord
100
AcDbTextStyleTableRecord
  2
Annotative
 70
     0
 40
0.0
 41
1.0
 50
0.0
 71
     0
 42
0.2
  3
txt
  4

1001
AcadAnnotative
1000
AnnotativeData
1002
{
1070
     1
1070
     1
1002
}
  0
ENDTAB
  0
TABLE
  2
VIEW
  5
6
330
0
100
AcDbSymbolTable
 70
     0
  0
ENDTAB
  0
TABLE
  2
UCS
  5
7
330
0
100
AcDbSymbolTable
 70
     1
  0
UCS
  5
1C0
330
7
100
AcDbSymbolTableRecord
100
AcDbUCSTableRecord
  2
REVIT60-Default Site
 70
     0
 10
0.0
 20
0.0
 30
0.0
 11
1.0
 21
0.0
 31
0.0
 12
0.0
 22
1.0
 32
0.0
 79
     0
146
0.0
  0
ENDTAB
  0
TABLE
  2
APPID
  5
9
330
0
100
AcDbSymbolTable
 70
     3
  0
APPID
  5
56
330
9
100
AcDbSymbolTableRecord
100
AcDbRegAppTableRecord
  2
ACAD
 70
     0
  0
APPID
  5
5E
330
9
100
AcDbSymbolTableRecord
100
AcDbRegAppTableRecord
  2
AcadAnnotative
 70
     0
  0
APPID
  5
78
330
9
100
AcDbSymbolTableRecord
100
AcDbRegAppTableRecord
  2
REVIT
 70
     0
  0
ENDTAB
  0
TABLE
  2
DIMSTYLE
  5
A
330
0
100
AcDbSymbolTable
 70
     2
100
AcDbDimStyleTable
 71
     0
  0
DIMSTYLE
105
58
330
A
100
AcDbSymbolTableRecord
100
AcDbDimStyleTableRecord
  2
Standard
 70
     0
340
55
  0
DIMSTYLE
105
59
330
A
100
AcDbSymbolTableRecord
100
AcDbDimStyleTableRecord
  2
Annotative
 70
     0
340
55
1001
AcadAnnotative
1000
AnnotativeData
1002
{
1070
     1
1070
     1
1002
}
  0
ENDTAB
  0
TABLE
  2
BLOCK_RECORD
  5
1
330
0
100
AcDbSymbolTable
 70
     1
  0
BLOCK_RECORD
  5
70
102
{ACAD_XDICTIONARY
360
1C5
102
}
330
1
100
AcDbSymbolTableRecord
100
AcDbBlockTableRecord
  2
*Model_Space
340
73
 70
     0
280
     1
281
     0
  0
BLOCK_RECORD
  5
6C
330
1
100
AcDbSymbolTableRecord
100
AcDbBlockTableRecord
  2
*Paper_Space
340
6F
 70
     0
280
     1
281
     0
  0
BLOCK_RECORD
  5
74
330
1
100
AcDbSymbolTableRecord
100
AcDbBlockTableRecord
  2
*Paper_Space0
340
77
 70
     0
280
     1
281
     0
  0
ENDTAB
  0
ENDSEC
  0
SECTION
  2
BLOCKS
  0
BLOCK
  5
71
330
70
100
AcDbEntity
  8
0
100
AcDbBlockBegin
  2
*Model_Space
 70
     0
 10
0.0
 20
0.0
 30
0.0
  3
*Model_Space
  1

  0
ENDBLK
  5
72
330
70
100
AcDbEntity
  8
0
100
AcDbBlockEnd
  0
BLOCK
  5
6D
330
6C
100
AcDbEntity
 67
     1
  8
0
100
AcDbBlockBegin
  2
*Paper_Space
 70
     0
 10
0.0
 20
0.0
 30
0.0
  3
*Paper_Space
  1

  0
ENDBLK
  5
6E
330
6C
100
AcDbEntity
 67
     1
  8
0
100
AcDbBlockEnd
  0
BLOCK
  5
75
330
74
100
AcDbEntity
 67
     1
  8
0
100
AcDbBlockBegin
  2
*Paper_Space0
 70
     0
 10
0.0
 20
0.0
 30
0.0
  3
*Paper_Space0
  1

  0
ENDBLK
  5
76
330
74
100
AcDbEntity
 67
     1
  8
0
100
AcDbBlockEnd
  0
ENDSEC
  0
SECTION
  2
ENTITIES
  0
LINE
  5
86
330
70
100
AcDbEntity
  8
A-WALL
100
AcDbLine
 10
385.8027964421448
 20
352.3582982879032
 30
0.0
 11
-263.9540198402987
 21
352.3582982879054
 31
0.0
1001
REVIT
1002
{
1070
     1
1000
569607
1002
}
1002
{
1070
     5
1000
1695
1002
}
1002
{
1070
     2
1000
-2000011
1002
}
  0
LINE
  5
87
330
70
100
AcDbEntity
  8
A-WALL
100
AcDbLine
 10
-275.6837569872559
 20
363.4832982879054
 30
0.0
 11
395.6453650103299
 21
363.4832982879032
 31
0.0
1001
REVIT
1002
{
1070
     1
1000
569607
1002
}
1002
{
1070
     5
1000
1695
1002
}
1002
{
1070
     2
1000
-2000011
1002
}
  0
LINE
  5
8A
330
70
100
AcDbEntity
  8
A-WALL
100
AcDbLine
 10
531.1877051875844
 20
-831.7067639344458
 30
0.0
 11
385.8027964421449
 21
352.3582982879034
 31
0.0
1001
REVIT
1002
{
1070
     1
1000
569870
1002
}
1002
{
1070
     5
1000
1695
1002
}
1002
{
1070
     2
1000
-2000011
1002
}
  0
LINE
  5
8B
330
70
100
AcDbEntity
  8
A-WALL
100
AcDbLine
 10
395.6453650103299
 20
363.4832982879032
 30
0.0
 11
543.7622302358589
 21
-842.8317639344458
 31
0.0
1001
REVIT
1002
{
1070
     1
1000
569870
1002
}
1002
{
1070
     5
1000
1695
1002
}
1002
{
1070
     2
1000
-2000011
1002
}
  0
LINE
  5
8D
330
70
100
AcDbEntity
  8
A-WALL
100
AcDbLine
 10
-201.2493119780365
 20
-831.7067639344433
 30
0.0
 11
531.1877051875844
 21
-831.7067639344458
 31
0.0
1001
REVIT
1002
{
1070
     1
1000
570029
1002
}
1002
{
1070
     5
1000
1695
1002
}
1002
{
1070
     2
1000
-2000011
1002
}
  0
LINE
  5
8E
330
70
100
AcDbEntity
  8
A-WALL
100
AcDbLine
 10
543.7622302358589
 20
-842.8317639344458
 30
0.0
 11
-211.8007525985202
 21
-842.8317639344431
 31
0.0
1001
REVIT
1002
{
1070
     1
1000
570029
1002
}
1002
{
1070
     5
1000
1695
1002
}
1002
{
1070
     2
1000
-2000011
1002
}
  0
LINE
  5
90
330
70
100
AcDbEntity
  8
A-WALL
100
AcDbLine
 10
-263.9540198402987
 20
352.3582982879053
 30
0.0
 11
-201.2493119780365
 21
-831.7067639344434
 31
0.0
1001
REVIT
1002
{
1070
     1
1000
570119
1002
}
1002
{
1070
     5
1000
1695
1002
}
1002
{
1070
     2
1000
-2000011
1002
}
  0
LINE
  5
91
330
70
100
AcDbEntity
  8
A-WALL
100
AcDbLine
 10
-211.8007525985202
 20
-842.8317639344431
 30
0.0
 11
-275.6837569872559
 21
363.4832982879054
 31
0.0
1001
REVIT
1002
{
1070
     1
1000
570119
1002
}
1002
{
1070
     5
1000
1695
1002
}
1002
{
1070
     2
1000
-2000011
1002
}
  0
HATCH
  5
AA
330
70
100
AcDbEntity
  8
A-FLOR-PATT
370
     9
100
AcDbHatch
 10
0.0
 20
0.0
 30
0.0
210
0.0
220
0.0
230
1.0
  2
FP_1
 70
     0
 71
     0
 91
        3
 92
        1
 93
        5
 72
     1
 10
-212.3899008617573
 20
-837.6620408442956
 11
-212.0745263854845
 21
-837.6620408442956
 72
     1
 10
-212.0745263854845
 20
-837.6620408442956
 11
-275.6837569872562
 21
363.4832982879057
 72
     1
 10
-275.6837569872562
 20
363.4832982879057
 11
-276.8935506270683
 21
363.4832982879057
 72
     1
 10
-276.8935506270683
 20
363.4832982879057
 11
-212.872531943759
 21
-837.6620408442956
 72
     1
 10
-212.872531943759
 20
-837.6620408442956
 11
-212.3899008617573
 21
-837.6620408442956
 97
        0
 92
        1
 93
        6
 72
     1
 10
397.011343250375
 20
-831.7067639344468
 11
531.187705187585
 21
-831.7067639344468
 72
     1
 10
531.187705187585
 20
-831.7067639344468
 11
385.8027964421452
 21
352.3582982879038
 72
     1
 10
385.8027964421452
 20
352.3582982879037
 11
-263.9540198402989
 21
352.3582982879057
 72
     1
 10
-263.9540198402989
 20
352.3582982879057
 11
-201.2493119780367
 21
-831.7067639344443
 72
     1
 10
-201.2493119780367
 20
-831.7067639344443
 11
385.8027964421451
 21
-831.7067639344468
 72
     1
 10
385.8027964421452
 20
-831.7067639344468
 11
397.011343250375
 21
-831.7067639344468
 97
        0
 92
        1
 93
       12
 72
     1
 10
-160.7387358765024
 20
-642.9405677615364
 11
-168.3637358765009
 21
-642.9405677615364
 72
     1
 10
-168.3637358765009
 20
-642.9405677615364
 11
-168.3637358765009
 21
-221.315567761537
 72
     1
 10
-168.3637358765009
 20
-221.315567761537
 11
-84.36373587650143
 21
-221.315567761537
 72
     1
 10
-84.36373587650143
 20
-221.315567761537
 11
-84.36373587650143
 21
-24.94056776153681
 72
     1
 10
-84.36373587650143
 20
-24.94056776153681
 11
-168.3637358765009
 21
-24.94056776153681
 72
     1
 10
-168.3637358765009
 20
-24.94056776153681
 11
-168.3637358765009
 21
323.4754480747888
 72
     1
 10
-168.3637358765009
 20
323.4754480747888
 11
379.2612641235006
 21
323.4754480747888
 72
     1
 10
379.2612641235006
 20
323.4754480747888
 11
379.2612641235006
 21
-546.9405677615396
 72
     1
 10
379.2612641235006
 20
-546.9405677615396
 11
127.2612641234979
 21
-546.9405677615396
 72
     1
 10
127.2612641234979
 20
-546.9405677615396
 11
127.2612641234979
 21
-642.9405677615364
 72
     1
 10
127.2612641234979
 20
-642.9405677615364
 11
-84.36373587650143
 21
-642.9405677615364
 72
     1
 10
-84.36373587650143
 20
-642.9405677615364
 11
-160.7387358765024
 21
-642.9405677615364
 97
        0
 75
     0
 76
     2
 52
0.0
 41
1.0
 77
     0
 78
     9
 53
0.0
 43
0.0
 44
0.0
 45
15.36
 46
3.839999999999999
 79
     5
 49
0.6336000000000001
 49
-10.886
 49
0.6336000000000001
 49
-10.886
 49
-61.44
 53
0.0
 43
0.0
 44
0.0
 45
15.36
 46
3.839999999999999
 79
     6
 49
-23.04
 49
0.6336000000000001
 49
-22.406
 49
0.6336000000000001
 49
-10.886
 49
-26.88
 53
0.0
 43
0.0
 44
0.0
 45
15.36
 46
3.839999999999999
 79
     5
 49
-57.6
 49
0.6336000000000001
 49
-7.046
 49
0.6336000000000001
 49
-18.566
 53
120.0
 43
5.759999999999999
 44
1.919999999999999
 45
-11.00553755053224
 46
11.38215020212898
 79
     5
 49
0.6336
 49
-10.886
 49
0.6336
 49
-10.886
 49
-61.43999999999999
 53
120.0
 43
5.759999999999999
 44
1.919999999999999
 45
-11.00553755053224
 46
11.38215020212898
 79
     6
 49
-23.04
 49
0.6336
 49
-22.406
 49
0.6336
 49
-10.886
 49
-26.88
 53
120.0
 43
5.759999999999999
 44
1.919999999999999
 45
-11.00553755053224
 46
11.38215020212898
 79
     5
 49
-57.59999999999999
 49
0.6336
 49
-7.045999999999999
 49
0.6336
 49
-18.56599999999999
 53
240.0
 43
7.679999999999999
 44
9.599999999999999
 45
-4.354462449467751
 46
-15.22215020212897
 79
     5
 49
0.6336000000000001
 49
-10.886
 49
0.6336000000000001
 49
-10.886
 49
-61.44
 53
240.0
 43
7.679999999999999
 44
9.599999999999999
 45
-4.354462449467751
 46
-15.22215020212897
 79
     6
 49
-23.04
 49
0.6336000000000001
 49
-22.406
 49
0.6336000000000001
 49
-10.886
 49
-26.88
 53
240.0
 43
7.679999999999999
 44
9.599999999999999
 45
-4.354462449467751
 46
-15.22215020212897
 79
     5
 49
-57.6
 49
0.6336000000000001
 49
-7.046
 49
0.6336000000000001
 49
-18.566
 98
        1
 10
0.0
 20
0.0
1001
REVIT
1002
{
1070
     1
1000
570141
1002
}
1002
{
1070
     5
1000
620709
1002
}
1002
{
1070
     2
1000
-2000032
1002
}
1002
{
1070
     3
1000
-2000541
1002
}
  0
LINE
  5
AB
330
70
100
AcDbEntity
  8
A-FLOR
100
AcDbLine
 10
-275.683756987256
 20
363.4832982879051
 30
0.0
 11
-276.8935506270679
 21
363.4832982879051
 31
0.0
1001
REVIT
1002
{
1070
     1
1000
570141
1002
}
1002
{
1070
     5
1000
620709
1002
}
1002
{
1070
     2
1000
-2000032
1002
}
  0
LINE
  5
AC
330
70
100
AcDbEntity
  8
A-FLOR
100
AcDbLine
 10
-276.8935506270679
 20
363.4832982879051
 30
0.0
 11
-212.8725319437589
 21
-837.6620408442921
 31
0.0
1001
REVIT
1002
{
1070
     1
1000
570141
1002
}
1002
{
1070
     5
1000
620709
1002
}
1002
{
1070
     2
1000
-2000032
1002
}
  0
LINE
  5
AD
330
70
100
AcDbEntity
  8
A-FLOR
100
AcDbLine
 10
-212.8725319437589
 20
-837.6620408442921
 30
0.0
 11
-212.0745263854845
 21
-837.6620408442921
 31
0.0
1001
REVIT
1002
{
1070
     1
1000
570141
1002
}
1002
{
1070
     5
1000
620709
1002
}
1002
{
1070
     2
1000
-2000032
1002
}
  0
HATCH
  5
B5
330
70
100
AcDbEntity
  8
A-WALL-PATT
370
     9
100
AcDbHatch
 10
0.0
 20
0.0
 30
0.0
210
0.0
220
0.0
230
1.0
  2
FP_2
 70
     0
 71
     0
 91
        1
 92
        1
 93
        6
 72
     1
 10
371.6362641235
 20
315.8504480747871
 11
379.2612641235006
 21
315.8504480747871
 72
     1
 10
379.2612641235006
 20
315.8504480747871
 11
379.2612641235006
 21
323.4754480747871
 72
     1
 10
379.2612641235006
 20
323.4754480747871
 11
-168.363735876495
 21
323.4754480747888
 72
     1
 10
-168.3637358764951
 20
323.4754480747888
 11
-168.3637358765009
 21
315.8504480747882
 72
     1
 10
-168.3637358765009
 20
315.8504480747882
 11
368.9226881817708
 21
315.8504480747882
 72
     1
 10
368.9226881817708
 20
315.8504480747882
 11
371.6362641235
 21
315.8504480747871
 97
        0
 75
     0
 76
     2
 52
0.0
 41
1.0
 77
     0
 78
     2
 53
45.0
 43
0.0
 44
0.0
 45
-4.242640687119285
 46
4.242640687119285
 79
     0
 53
135.0
 43
0.0
 44
0.0
 45
-4.242640687119285
 46
-4.242640687119284
 79
     0
 98
        1
 10
0.0
 20
0.0
1001
REVIT
1002
{
1070
     1
1000
571300
1002
}
1002
{
1070
     5
1000
1703
1002
}
1002
{
1070
     4
1000
26
1002
}
1002
{
1070
     2
1000
-2000011
1002
}
1002
{
1070
     3
1000
-2000588
1002
}
  0
LINE
  5
B6
330
70
100
AcDbEntity
  8
A-WALL
370
    60
100
AcDbLine
 10
-160.7387358765007
 20
315.8504480747887
 30
0.0
 11
-60.36373587650077
 21
315.8504480747883
 31
0.0
1001
REVIT
1002
{
1070
     1
1000
571300
1002
}
1002
{
1070
     5
1000
1703
1002
}
1002
{
1070
     2
1000
-2000011
1002
}
  0
LINE
  5
B7
330
70
100
AcDbEntity
  8
A-WALL
370
    60
100
AcDbLine
 10
-52.73873587650076
 20
315.8504480747883
 30
0.0
 11
47.63626412350045
 21
315.850448074788
 31
0.0
1001
REVIT
1002
{
1070
     1
1000
571300
1002
}
1002
{
1070
     5
1000
1703
1002
}
1002
{
1070
     2
1000
-2000011
1002
}
  0
LINE
  5
B8
330
70
100
AcDbEntity
  8
A-WALL
370
    60
100
AcDbLine
 10
55.26126412350045
 20
315.8504480747879
 30
0.0
 11
275.6362641235003
 21
315.8504480747873
 31
0.0
1001
REVIT
1002
{
1070
     1
1000
571300
1002
}
1002
{
1070
     5
1000
1703
1002
}
1002
{
1070
     2
1000
-2000011
1002
}
  0
LINE
  5
B9
330
70
100
AcDbEntity
  8
A-WALL
370
    60
100
AcDbLine
 10
283.2612641235003
 20
315.8504480747873
 30
0.0
 11
371.6362641235003
 21
315.8504480747869
 31
0.0
1001
REVIT
1002
{
1070
     1
1000
571300
1002
}
1002
{
1070
     5
1000
1703
1002
}
1002
{
1070
     2
1000
-2000011
1002
}
  0
LINE
  5
BB
330
70
100
AcDbEntity
  8
A-WALL
370
    60
100
AcDbLine
 10
379.2612641235004
 20
323.475448074787
 30
0.0
 11
-168.3637358765007
 21
323.4754480747887
 31
0.0
1001
REVIT
1002
{
1070
     1
1000
571300
1002
}
1002
{
1070
     5
1000
1703
1002
}
1002
{
1070
     2
1000
-2000011
1002
}
  0
HATCH
  5
C3
330
70
100
AcDbEntity
  8
A-WALL-PATT
370
     9
100
AcDbHatch
 10
0.0
 20
0.0
 30
0.0
210
0.0
220
0.0
230
1.0
  2
FP_2
 70
     0
 71
     0
 91
        1
 92
        1
 93
        6
 72
     1
 10
227.6362641234992
 20
-546.9405677615396
 11
371.6362641235
 21
-546.9405677615396
 72
     1
 10
371.6362641235
 20
-546.9405677615396
 11
371.6362641235
 21
-539.3155677615389
 72
     1
 10
371.6362641235
 20
-539.3155677615389
 11
119.636264123498
 21
-539.3155677615377
 72
     1
 10
119.636264123498
 20
-539.3155677615377
 11
119.636264123498
 21
-546.9405677615396
 72
     1
 10
119.636264123498
 20
-546.9405677615396
 11
127.2612641234977
 21
-546.9405677615375
 72
     1
 10
127.2612641234977
 20
-546.9405677615375
 11
227.6362641234992
 21
-546.9405677615396
 97
        0
 75
     0
 76
     2
 52
0.0
 41
1.0
 77
     0
 78
     2
 53
45.0
 43
0.0
 44
0.0
 45
-4.242640687119285
 46
4.242640687119285
 79
     0
 53
135.0
 43
0.0
 44
0.0
 45
-4.242640687119285
 46
-4.242640687119284
 79
     0
 98
        1
 10
0.0
 20
0.0
1001
REVIT
1002
{
1070
     1
1000
571541
1002
}
1002
{
1070
     5
1000
1703
1002
}
1002
{
1070
     4
1000
26
1002
}
1002
{
1070
     2
1000
-2000011
1002
}
1002
{
1070
     3
1000
-2000588
1002
}
  0
LINE
  5
C4
330
70
100
AcDbEntity
  8
A-WALL
370
    60
100
AcDbLine
 10
371.6362641234989
 20
-539.3155677615376
 30
0.0
 11
235.2612641234989
 21
-539.3155677615371
 31
0.0
1001
REVIT
1002
{
1070
     1
1000
571541
1002
}
1002
{
1070
     5
1000
1703
1002
}
1002
{
1070
     2
1000
-2000011
1002
}
  0
LINE
  5
C5
330
70
100
AcDbEntity
  8
A-WALL
370
    60
100
AcDbLine
 10
227.636264123499
 20
-539.3155677615371
 30
0.0
 11
119.6362641234979
 21
-539.3155677615368
 31
0.0
1001
REVIT
1002
{
1070
     1
1000
571541
1002
}
1002
{
1070
     5
1000
1703
1002
}
1002
{
1070
     2
1000
-2000011
1002
}
  0
LINE
  5
C7
330
70
100
AcDbEntity
  8
A-WALL
370
    60
100
AcDbLine
 10
127.2612641234979
 20
-546.9405677615368
 30
0.0
 11
379.2612641234989
 21
-546.9405677615376
 31
0.0
1001
REVIT
1002
{
1070
     1
1000
571541
1002
}
1002
{
1070
     5
1000
1703
1002
}
1002
{
1070
     2
1000
-2000011
1002
}
  0
HATCH
  5
CC
330
70
100
AcDbEntity
  8
A-WALL-PATT
370
     9
100
AcDbHatch
 10
0.0
 20
0.0
 30
0.0
210
0.0
220
0.0
230
1.0
  2
FP_2
 70
     0
 71
     0
 91
        1
 92
        1
 93
        4
 72
     1
 10
127.2612641234979
 20
-642.9405677615364
 11
127.2612641234979
 21
-546.9405677615396
 72
     1
 10
127.2612641234979
 20
-546.9405677615396
 11
119.636264123498
 21
-546.9405677615396
 72
     1
 10
119.636264123498
 20
-546.9405677615396
 11
119.6362641234978
 21
-642.9405677615364
 72
     1
 10
119.6362641234978
 20
-642.9405677615364
 11
127.2612641234979
 21
-642.9405677615364
 97
        0
 75
     0
 76
     2
 52
0.0
 41
1.0
 77
     0
 78
     2
 53
45.0
 43
0.0
 44
0.0
 45
-4.242640687119285
 46
4.242640687119285
 79
     0
 53
135.0
 43
0.0
 44
0.0
 45
-4.242640687119285
 46
-4.242640687119284
 79
     0
 98
        1
 10
0.0
 20
0.0
1001
REVIT
1002
{
1070
     1
1000
571632
1002
}
1002
{
1070
     5
1000
1703
1002
}
1002
{
1070
     4
1000
26
1002
}
1002
{
1070
     2
1000
-2000011
1002
}
1002
{
1070
     3
1000
-2000588
1002
}
  0
LINE
  5
CD
330
70
100
AcDbEntity
  8
A-WALL
370
    60
100
AcDbLine
 10
119.6362641234979
 20
-539.3155677615368
 30
0.0
 11
119.6362641234977
 21
-635.3155677615368
 31
0.0
1001
REVIT
1002
{
1070
     1
1000
571632
1002
}
1002
{
1070
     5
1000
1703
1002
}
1002
{
1070
     2
1000
-2000011
1002
}
  0
LINE
  5
CF
330
70
100
AcDbEntity
  8
A-WALL
370
    60
100
AcDbLine
 10
127.2612641234977
 20
-642.9405677615368
 30
0.0
 11
127.2612641234979
 21
-546.9405677615368
 31
0.0
1001
REVIT
1002
{
1070
     1
1000
571632
1002
}
1002
{
1070
     5
1000
1703
1002
}
1002
{
1070
     2
1000
-2000011
1002
}
  0
HATCH
  5
D5
330
70
100
AcDbEntity
  8
A-WALL-PATT
370
     9
100
AcDbHatch
 10
0.0
 20
0.0
 30
0.0
210
0.0
220
0.0
230
1.0
  2
FP_2
 70
     0
 71
     0
 91
        1
 92
        1
 93
        5
 72
     1
 10
119.6362641234978
 20
-642.9405677615364
 11
119.6362641234978
 21
-635.3155677615366
 72
     1
 10
119.6362641234978
 20
-635.3155677615366
 11
-168.3637358765008
 21
-635.3155677615366
 72
     1
 10
-168.3637358765009
 20
-635.3155677615366
 11
-168.3637358765009
 21
-642.9405677615364
 72
     1
 10
-168.3637358765009
 20
-642.9405677615364
 11
-84.36373587650143
 21
-642.9405677615364
 72
     1
 10
-84.36373587650143
 20
-642.9405677615364
 11
119.6362641234978
 21
-642.9405677615364
 97
        0
 75
     0
 76
     2
 52
0.0
 41
1.0
 77
     0
 78
     2
 53
45.0
 43
0.0
 44
0.0
 45
-4.242640687119285
 46
4.242640687119285
 79
     0
 53
135.0
 43
0.0
 44
0.0
 45
-4.242640687119285
 46
-4.242640687119284
 79
     0
 98
        1
 10
0.0
 20
0.0
1001
REVIT
1002
{
1070
     1
1000
571911
1002
}
1002
{
1070
     5
1000
1703
1002
}
1002
{
1070
     4
1000
26
1002
}
1002
{
1070
     2
1000
-2000011
1002
}
1002
{
1070
     3
1000
-2000588
1002
}
  0
LINE
  5
D6
330
70
100
AcDbEntity
  8
A-WALL
370
    60
100
AcDbLine
 10
119.6362641234978
 20
-635.3155677615368
 30
0.0
 11
-160.7387358765022
 21
-635.3155677615359
 31
0.0
1001
REVIT
1002
{
1070
     1
1000
571911
1002
}
1002
{
1070
     5
1000
1703
1002
}
1002
{
1070
     2
1000
-2000011
1002
}
  0
LINE
  5
D8
330
70
100
AcDbEntity
  8
A-WALL
370
    60
100
AcDbLine
 10
-168.3637358765022
 20
-642.9405677615358
 30
0.0
 11
127.2612641234977
 21
-642.9405677615368
 31
0.0
1001
REVIT
1002
{
1070
     1
1000
571911
1002
}
1002
{
1070
     5
1000
1703
1002
}
1002
{
1070
     2
1000
-2000011
1002
}
  0
HATCH
  5
DE
330
70
100
AcDbEntity
  8
A-WALL-PATT
370
     9
100
AcDbHatch
 10
0.0
 20
0.0
 30
0.0
210
0.0
220
0.0
230
1.0
  2
FP_2
 70
     0
 71
     0
 91
        1
 92
        1
 93
        5
 72
     1
 10
-160.738735876502
 20
-635.3155677615366
 11
-160.738735876502
 21
-221.315567761537
 72
     1
 10
-160.738735876502
 20
-221.315567761537
 11
-168.3637358765009
 21
-221.315567761537
 72
     1
 10
-168.3637358765009
 20
-221.315567761537
 11
-168.3637358765009
 21
-635.3155677615366
 72
     1
 10
-168.3637358765009
 20
-635.3155677615366
 11
-166.8446134335717
 21
-635.3155677615366
 72
     1
 10
-166.8446134335717
 20
-635.3155677615366
 11
-160.738735876502
 21
-635.3155677615366
 97
        0
 75
     0
 76
     2
 52
0.0
 41
1.0
 77
     0
 78
     2
 53
45.0
 43
0.0
 44
0.0
 45
-4.242640687119285
 46
4.242640687119285
 79
     0
 53
135.0
 43
0.0
 44
0.0
 45
-4.242640687119285
 46
-4.242640687119284
 79
     0
 98
        1
 10
0.0
 20
0.0
1001
REVIT
1002
{
1070
     1
1000
571995
1002
}
1002
{
1070
     5
1000
1703
1002
}
1002
{
1070
     4
1000
26
1002
}
1002
{
1070
     2
1000
-2000011
1002
}
1002
{
1070
     3
1000
-2000588
1002
}
  0
LINE
  5
DF
330
70
100
AcDbEntity
  8
A-WALL
370
    60
100
AcDbLine
 10
-160.7387358765022
 20
-635.3155677615359
 30
0.0
 11
-160.7387358765019
 21
-408.9405677615363
 31
0.0
1001
REVIT
1002
{
1070
     1
1000
571995
1002
}
1002
{
1070
     5
1000
1703
1002
}
1002
{
1070
     2
1000
-2000011
1002
}
  0
LINE
  5
E0
330
70
100
AcDbEntity
  8
A-WALL
370
    60
100
AcDbLine
 10
-160.7387358765019
 20
-401.3155677615363
 30
0.0
 11
-160.7387358765016
 21
-228.9405677615365
 31
0.0
1001
REVIT
1002
{
1070
     1
1000
571995
1002
}
1002
{
1070
     5
1000
1703
1002
}
1002
{
1070
     2
1000
-2000011
1002
}
  0
LINE
  5
E2
330
70
100
AcDbEntity
  8
A-WALL
370
    60
100
AcDbLine
 10
-168.3637358765015
 20
-221.3155677615364
 30
0.0
 11
-168.3637358765022
 21
-642.9405677615358
 31
0.0
1001
REVIT
1002
{
1070
     1
1000
571995
1002
}
1002
{
1070
     5
1000
1703
1002
}
1002
{
1070
     2
1000
-2000011
1002
}
  0
HATCH
  5
127
330
70
100
AcDbEntity
  8
A-FLOR-PATT
370
     9
100
AcDbHatch
 10
0.0
 20
0.0
 30
0.0
210
0.0
220
0.0
230
1.0
  2
FP_3
 70
     0
 71
     0
 91
       12
 92
        1
 93
        9
 72
     1
 10
-144.8831043660841
 20
-635.3155677615366
 11
119.6362641234978
 21
-635.3155677615366
 72
     1
 10
119.6362641234978
 20
-635.3155677615366
 11
119.636264123498
 21
-539.3155677615377
 72
     1
 10
119.636264123498
 20
-539.3155677615377
 11
227.6362641234992
 21
-539.3155677615377
 72
     1
 10
227.6362641234992
 20
-539.3155677615377
 11
227.6362641234992
 21
-228.9405677615381
 72
     1
 10
227.6362641234992
 20
-228.9405677615381
 11
67.26126412349876
 21
-228.9405677615376
 72
     1
 10
67.26126412349877
 20
-228.9405677615376
 11
67.2612641234981
 21
-408.9405677615375
 72
     1
 10
67.2612641234981
 20
-408.9405677615375
 11
-160.738735876502
 21
-408.9405677615375
 72
     1
 10
-160.738735876502
 20
-408.9405677615375
 11
-160.738735876502
 21
-635.3155677615366
 72
     1
 10
-160.738735876502
 20
-635.3155677615366
 11
-144.8831043660841
 21
-635.3155677615366
 97
        0
 92
        1
 93
        5
 72
     1
 10
371.6362641235
 20
-539.3155677615389
 11
371.6362641235
 21
-228.9405677615385
 72
     1
 10
371.6362641235
 20
-228.9405677615386
 11
235.2612641234998
 21
-228.9405677615381
 72
     1
 10
235.2612641234998
 20
-228.9405677615381
 11
235.2612641234998
 21
-539.3155677615377
 72
     1
 10
235.2612641234998
 20
-539.3155677615377
 11
368.2128320055942
 21
-539.3155677615377
 72
     1
 10
368.2128320055942
 20
-539.3155677615377
 11
371.6362641235
 21
-539.3155677615389
 97
        0
 92
        1
 93
        6
 72
     1
 10
32.61898965132871
 20
-401.3155677615376
 11
59.63626412349804
 21
-401.3155677615376
 72
     1
 10
59.63626412349804
 20
-401.3155677615376
 11
59.63626412349856
 21
-228.9405677615376
 72
     1
 10
59.63626412349856
 20
-228.9405677615376
 11
-160.738735876502
 21
-228.9405677615376
 72
     1
 10
-160.738735876502
 20
-228.9405677615376
 11
-160.738735876502
 21
-401.3155677615376
 72
     1
 10
-160.738735876502
 20
-401.3155677615376
 11
-84.36373587650143
 21
-401.3155677615376
 72
     1
 10
-84.36373587650143
 20
-401.3155677615376
 11
32.6189896513287
 21
-401.3155677615376
 97
        0
 92
        1
 93
        5
 72
     1
 10
371.6362641235
 20
-221.3155677615547
 11
371.6362641235
 21
-90.9405677615384
 72
     1
 10
371.6362641235
 20
-90.94056776153841
 11
199.2612641234989
 21
-90.94056776153841
 72
     1
 10
199.2612641234989
 20
-90.94056776153841
 11
199.2612641234989
 21
-221.3155677615379
 72
     1
 10
199.2612641234989
 20
-221.3155677615378
 11
369.0001429151465
 21
-221.3155677615385
 72
     1
 10
369.0001429151465
 20
-221.3155677615385
 11
371.6362641235
 21
-221.3155677615547
 97
        0
 92
        1
 93
        6
 72
     1
 10
89.97680151897087
 20
-221.315567761537
 11
191.6362641234985
 21
-221.315567761537
 72
     1
 10
191.6362641234985
 20
-221.315567761537
 11
191.6362641234989
 21
-24.9405677615415
 72
     1
 10
191.6362641234989
 20
-24.9405677615415
 11
-76.73873587650135
 21
-24.94056776153783
 72
     1
 10
-76.73873587650136
 20
-24.94056776153783
 11
-76.73873587650136
 21
-221.315567761537
 72
     1
 10
-76.73873587650136
 20
-221.315567761537
 11
67.26126412349877
 21
-221.315567761537
 72
     1
 10
67.26126412349877
 20
-221.315567761537
 11
89.97680151897087
 21
-221.315567761537
 97
        0
 92
        1
 93
        5
 72
     1
 10
199.2612641234989
 20
-83.3155677615324
 11
371.6362641235
 21
-83.31556776152728
 72
     1
 10
371.6362641235
 20
-83.31556776152728
 11
371.6362641235
 21
-24.94056776154449
 72
     1
 10
371.6362641235
 20
-24.94056776154448
 11
199.2612641235168
 21
-24.94056776154167
 72
     1
 10
199.2612641235168
 20
-24.94056776154167
 11
199.2612641235161
 21
-26.98957657211534
 72
     1
 10
199.2612641235161
 20
-26.98957657211534
 11
199.2612641234989
 21
-83.3155677615324
 97
        0
 92
        1
 93
        6
 72
     1
 10
-5.244984630442728
 20
-17.31556776153828
 11
47.63626412350026
 21
-17.31556776153828
 72
     1
 10
47.63626412350026
 20
-17.31556776153828
 11
47.63626412350026
 21
155.0594322384629
 72
     1
 10
47.63626412350026
 20
155.0594322384629
 11
-160.7387358765012
 21
155.0594322384629
 72
     1
 10
-160.7387358765012
 20
155.0594322384629
 11
-160.7387358765012
 21
-17.31556776153624
 72
     1
 10
-160.7387358765012
 20
-17.31556776153624
 11
-74.22171680078683
 21
-17.31556776153735
 72
     1
 10
-74.22171680078683
 20
-17.31556776153735
 11
-5.244984630442729
 21
-17.31556776153828
 97
        0
 92
        1
 93
        5
 72
     1
 10
191.6362641234989
 20
-17.31556776153828
 11
371.6362641235
 21
-17.31556776153828
 72
     1
 10
371.6362641235
 20
-17.31556776153828
 11
371.6362641235
 21
155.0594322384562
 72
     1
 10
371.6362641235
 20
155.0594322384562
 11
163.2612641235004
 21
155.0594322384618
 72
     1
 10
163.2612641235004
 20
155.0594322384618
 11
163.2612641235001
 21
-17.31556776153829
 72
     1
 10
163.2612641235001
 20
-17.31556776153828
 11
191.6362641234989
 21
-17.31556776153828
 97
        0
 92
        1
 93
        7
 72
     1
 10
55.26126412350048
 20
-17.31556776153828
 11
155.6362641235
 21
-17.31556776153828
 72
     1
 10
155.6362641235
 20
-17.31556776153828
 11
155.6362641235
 21
162.6844322384625
 72
     1
 10
155.6362641235
 20
162.6844322384625
 11
275.6362641235004
 21
162.684432238462
 72
     1
 10
275.6362641235004
 20
162.684432238462
 11
275.6362641235004
 21
315.8504480747882
 72
     1
 10
275.6362641235004
 20
315.8504480747882
 11
55.26126412350049
 21
315.8504480747882
 72
     1
 10
55.26126412350048
 20
315.8504480747882
 11
55.26126412350048
 21
-16.84810544997947
 72
     1
 10
55.26126412350048
 20
-16.84810544997949
 11
55.26126412350048
 21
-17.31556776153828
 97
        0
 92
        1
 93
        4
 72
     1
 10
371.6362641235
 20
162.684432238462
 11
371.6362641235
 21
315.8504480747882
 72
     1
 10
371.6362641235
 20
315.8504480747882
 11
283.2612641235006
 21
315.8504480747882
 72
     1
 10
283.2612641235006
 20
315.8504480747882
 11
283.2612641235006
 21
162.684432238462
 72
     1
 10
283.2612641235006
 20
162.684432238462
 11
371.6362641235
 21
162.684432238462
 97
        0
 92
        1
 93
        5
 72
     1
 10
47.63626412350026
 20
162.6844322384632
 11
47.63626412350026
 21
315.8504480747882
 72
     1
 10
47.63626412350026
 20
315.8504480747882
 11
-52.73873587649489
 21
315.8504480747882
 72
     1
 10
-52.73873587649489
 20
315.8504480747882
 11
-52.73873587650086
 21
162.6844322384632
 72
     1
 10
-52.73873587650086
 20
162.6844322384632
 11
-5.244984630442729
 21
162.6844322384632
 72
     1
 10
-5.244984630442728
 20
162.6844322384632
 11
47.63626412350026
 21
162.6844322384632
 97
        0
 92
        1
 93
        5
 72
     1
 10
-60.36373587650109
 20
162.6844322384632
 11
-60.36373587650109
 21
315.8504480747882
 72
     1
 10
-60.36373587650109
 20
315.8504480747882
 11
-160.7387358765012
 21
315.8504480747882
 72
     1
 10
-160.7387358765012
 20
315.8504480747882
 11
-160.7387358765012
 21
162.6844322384632
 72
     1
 10
-160.7387358765012
 20
162.6844322384632
 11
-76.73873587650136
 21
162.6844322384632
 72
     1
 10
-76.73873587650136
 20
162.6844322384632
 11
-60.36373587650109
 21
162.6844322384632
 97
        0
 75
     0
 76
     2
 52
0.0
 41
1.0
 77
     0
 78
     1
 53
270.0
 43
129.35
 44
-135.733
 45
3.0
 46
0.0000000000000002
 79
     0
 98
        1
 10
0.0
 20
0.0
1001
REVIT
1002
{
1070
     1
1000
572139
1002
}
1002
{
1070
     5
1000
620756
1002
}
1002
{
1070
     2
1000
-2000032
1002
}
1002
{
1070
     3
1000
-2000541
1002
}
  0
HATCH
  5
12D
330
70
100
AcDbEntity
  8
A-WALL-PATT
370
     9
100
AcDbHatch
 10
0.0
 20
0.0
 30
0.0
210
0.0
220
0.0
230
1.0
  2
FP_2
 70
     0
 71
     0
 91
        1
 92
        1
 93
        5
 72
     1
 10
379.2612641235006
 20
-546.9405677615396
 11
379.2612641235006
 21
315.8504480747871
 72
     1
 10
379.2612641235006
 20
315.8504480747871
 11
371.6362641235
 21
315.8504480747871
 72
     1
 10
371.6362641235
 20
315.8504480747871
 11
371.6362641235
 21
-546.9405677615395
 72
     1
 10
371.6362641235
 20
-546.9405677615396
 11
379.0647072574868
 21
-546.9405677615396
 72
     1
 10
379.0647072574868
 20
-546.9405677615396
 11
379.2612641235006
 21
-546.9405677615396
 97
        0
 75
     0
 76
     2
 52
0.0
 41
1.0
 77
     0
 78
     2
 53
45.0
 43
0.0
 44
0.0
 45
-4.242640687119285
 46
4.242640687119285
 79
     0
 53
135.0
 43
0.0
 44
0.0
 45
-4.242640687119285
 46
-4.242640687119284
 79
     0
 98
        1
 10
0.0
 20
0.0
1001
REVIT
1002
{
1070
     1
1000
573091
1002
}
1002
{
1070
     5
1000
1703
1002
}
1002
{
1070
     4
1000
26
1002
}
1002
{
1070
     2
1000
-2000011
1002
}
1002
{
1070
     3
1000
-2000588
1002
}
  0
LINE
  5
12E
330
70
100
AcDbEntity
  8
A-WALL
370
    60
100
AcDbLine
 10
371.6362641235003
 20
315.8504480747869
 30
0.0
 11
371.6362641235
 21
162.6844322384617
 31
0.0
1001
REVIT
1002
{
1070
     1
1000
573091
1002
}
1002
{
1070
     5
1000
1703
1002
}
1002
{
1070
     2
1000
-2000011
1002
}
  0
LINE
  5
12F
330
70
100
AcDbEntity
  8
A-WALL
370
    60
100
AcDbLine
 10
371.6362641235
 20
155.0594322384617
 30
0.0
 11
371.6362641234998
 21
-17.31556776153818
 31
0.0
1001
REVIT
1002
{
1070
     1
1000
573091
1002
}
1002
{
1070
     5
1000
1703
1002
}
1002
{
1070
     2
1000
-2000011
1002
}
  0
LINE
  5
130
330
70
100
AcDbEntity
  8
A-WALL
370
    60
100
AcDbLine
 10
371.6362641234998
 20
-24.94056776153819
 30
0.0
 11
371.6362641234996
 21
-83.31556776153824
 31
0.0
1001
REVIT
1002
{
1070
     1
1000
573091
1002
}
1002
{
1070
     5
1000
1703
1002
}
1002
{
1070
     2
1000
-2000011
1002
}
  0
LINE
  5
131
330
70
100
AcDbEntity
  8
A-WALL
370
    60
100
AcDbLine
 10
371.6362641234996
 20
-90.94056776153825
 30
0.0
 11
371.6362641234994
 21
-221.3155677615381
 31
0.0
1001
REVIT
1002
{
1070
     1
1000
573091
1002
}
1002
{
1070
     5
1000
1703
1002
}
1002
{
1070
     2
1000
-2000011
1002
}
  0
LINE
  5
132
330
70
100
AcDbEntity
  8
A-WALL
370
    60
100
AcDbLine
 10
371.6362641234994
 20
-228.9405677615381
 30
0.0
 11
371.6362641234989
 21
-539.3155677615375
 31
0.0
1001
REVIT
1002
{
1070
     1
1000
573091
1002
}
1002
{
1070
     5
1000
1703
1002
}
1002
{
1070
     2
1000
-2000011
1002
}
  0
LINE
  5
134
330
70
100
AcDbEntity
  8
A-WALL
370
    60
100
AcDbLine
 10
379.2612641234989
 20
-546.9405677615376
 30
0.0
 11
379.2612641235004
 21
323.475448074787
 31
0.0
1001
REVIT
1002
{
1070
     1
1000
573091
1002
}
1002
{
1070
     5
1000
1703
1002
}
1002
{
1070
     2
1000
-2000011
1002
}
  0
HATCH
  5
13A
330
70
100
AcDbEntity
  8
A-WALL-PATT
370
     9
100
AcDbHatch
 10
0.0
 20
0.0
 30
0.0
210
0.0
220
0.0
230
1.0
  2
FP_2
 70
     0
 71
     0
 91
        1
 92
        1
 93
        5
 72
     1
 10
67.2612641234981
 20
-408.9405677615375
 11
67.2612641234981
 21
-401.3155677615376
 72
     1
 10
67.2612641234981
 20
-401.3155677615376
 11
-160.738735876502
 21
-401.3155677615376
 72
     1
 10
-160.738735876502
 20
-401.3155677615376
 11
-160.738735876502
 21
-408.9405677615368
 72
     1
 10
-160.738735876502
 20
-408.9405677615368
 11
37.57450788549369
 21
-408.9405677615375
 72
     1
 10
37.57450788549368
 20
-408.9405677615375
 11
67.2612641234981
 21
-408.9405677615375
 97
        0
 75
     0
 76
     2
 52
0.0
 41
1.0
 77
     0
 78
     2
 53
45.0
 43
0.0
 44
0.0
 45
-4.242640687119285
 46
4.242640687119285
 79
     0
 53
135.0
 43
0.0
 44
0.0
 45
-4.242640687119285
 46
-4.242640687119284
 79
     0
 98
        1
 10
0.0
 20
0.0
1001
REVIT
1002
{
1070
     1
1000
598192
1002
}
1002
{
1070
     5
1000
1703
1002
}
1002
{
1070
     4
1000
26
1002
}
1002
{
1070
     2
1000
-2000011
1002
}
1002
{
1070
     3
1000
-2000588
1002
}
  0
LINE
  5
13B
330
70
100
AcDbEntity
  8
A-WALL
370
    60
100
AcDbLine
 10
-160.7387358765019
 20
-408.9405677615363
 30
0.0
 11
67.26126412349808
 21
-408.9405677615371
 31
0.0
1001
REVIT
1002
{
1070
     1
1000
598192
1002
}
1002
{
1070
     5
1000
1703
1002
}
1002
{
1070
     2
1000
-2000011
1002
}
  0
LINE
  5
13D
330
70
100
AcDbEntity
  8
A-WALL
370
    60
100
AcDbLine
 10
59.6362641234981
 20
-401.3155677615371
 30
0.0
 11
-160.7387358765019
 21
-401.3155677615363
 31
0.0
1001
REVIT
1002
{
1070
     1
1000
598192
1002
}
1002
{
1070
     5
1000
1703
1002
}
1002
{
1070
     2
1000
-2000011
1002
}
  0
HATCH
  5
142
330
70
100
AcDbEntity
  8
A-WALL-PATT
370
     9
100
AcDbHatch
 10
0.0
 20
0.0
 30
0.0
210
0.0
220
0.0
230
1.0
  2
FP_2
 70
     0
 71
     0
 91
        1
 92
        1
 93
        4
 72
     1
 10
67.2612641234981
 20
-401.3155677615376
 11
67.26126412349877
 21
-228.9405677615376
 72
     1
 10
67.26126412349877
 20
-228.9405677615376
 11
59.63626412349856
 21
-228.9405677615376
 72
     1
 10
59.63626412349856
 20
-228.9405677615376
 11
59.63626412349804
 21
-401.3155677615376
 72
     1
 10
59.63626412349804
 20
-401.3155677615376
 11
67.2612641234981
 21
-401.3155677615376
 97
        0
 75
     0
 76
     2
 52
0.0
 41
1.0
 77
     0
 78
     2
 53
45.0
 43
0.0
 44
0.0
 45
-4.242640687119285
 46
4.242640687119285
 79
     0
 53
135.0
 43
0.0
 44
0.0
 45
-4.242640687119285
 46
-4.242640687119284
 79
     0
 98
        1
 10
0.0
 20
0.0
1001
REVIT
1002
{
1070
     1
1000
598781
1002
}
1002
{
1070
     5
1000
1703
1002
}
1002
{
1070
     4
1000
26
1002
}
1002
{
1070
     2
1000
-2000011
1002
}
1002
{
1070
     3
1000
-2000588
1002
}
  0
LINE
  5
143
330
70
100
AcDbEntity
  8
A-WALL
370
    60
100
AcDbLine
 10
67.26126412349808
 20
-408.9405677615371
 30
0.0
 11
67.2612641234986
 21
-228.9405677615372
 31
0.0
1001
REVIT
1002
{
1070
     1
1000
598781
1002
}
1002
{
1070
     5
1000
1703
1002
}
1002
{
1070
     2
1000
-2000011
1002
}
  0
LINE
  5
144
330
70
100
AcDbEntity
  8
A-WALL
370
    60
100
AcDbLine
 10
59.6362641234986
 20
-228.9405677615371
 30
0.0
 11
59.6362641234981
 21
-401.3155677615371
 31
0.0
1001
REVIT
1002
{
1070
     1
1000
598781
1002
}
1002
{
1070
     5
1000
1703
1002
}
1002
{
1070
     2
1000
-2000011
1002
}
  0
HATCH
  5
14A
330
70
100
AcDbEntity
  8
A-WALL-PATT
370
     9
100
AcDbHatch
 10
0.0
 20
0.0
 30
0.0
210
0.0
220
0.0
230
1.0
  2
FP_2
 70
     0
 71
     0
 91
        1
 92
        1
 93
        5
 72
     1
 10
371.6362641235
 20
-228.9405677615386
 11
371.6362641235
 21
-221.3155677615547
 72
     1
 10
371.6362641235
 20
-221.3155677615547
 11
-160.738735876502
 21
-221.315567761537
 72
     1
 10
-160.738735876502
 20
-221.315567761537
 11
-160.738735876502
 21
-228.9405677615376
 72
     1
 10
-160.738735876502
 20
-228.9405677615376
 11
368.8544876672212
 21
-228.9405677615386
 72
     1
 10
368.8544876672211
 20
-228.9405677615386
 11
371.6362641235
 21
-228.9405677615386
 97
        0
 75
     0
 76
     2
 52
0.0
 41
1.0
 77
     0
 78
     2
 53
45.0
 43
0.0
 44
0.0
 45
-4.242640687119285
 46
4.242640687119285
 79
     0
 53
135.0
 43
0.0
 44
0.0
 45
-4.242640687119285
 46
-4.242640687119284
 79
     0
 98
        1
 10
0.0
 20
0.0
1001
REVIT
1002
{
1070
     1
1000
610927
1002
}
1002
{
1070
     5
1000
1703
1002
}
1002
{
1070
     4
1000
26
1002
}
1002
{
1070
     2
1000
-2000011
1002
}
1002
{
1070
     3
1000
-2000588
1002
}
  0
LINE
  5
14B
330
70
100
AcDbEntity
  8
A-WALL
370
    60
100
AcDbLine
 10
371.6362641234995
 20
-221.3155677615381
 30
0.0
 11
199.2612641234984
 21
-221.3155677615376
 31
0.0
1001
REVIT
1002
{
1070
     1
1000
610927
1002
}
1002
{
1070
     5
1000
1703
1002
}
1002
{
1070
     2
1000
-2000011
1002
}
  0
LINE
  5
14C
330
70
100
AcDbEntity
  8
A-WALL
370
    60
100
AcDbLine
 10
191.6362641234984
 20
-221.3155677615376
 30
0.0
 11
-76.73873587650152
 21
-221.3155677615367
 31
0.0
1001
REVIT
1002
{
1070
     1
1000
610927
1002
}
1002
{
1070
     5
1000
1703
1002
}
1002
{
1070
     2
1000
-2000011
1002
}
  0
LINE
  5
14D
330
70
100
AcDbEntity
  8
A-WALL
370
    60
100
AcDbLine
 10
-84.3637358765015
 20
-221.3155677615367
 30
0.0
 11
-168.3637358765015
 21
-221.3155677615364
 31
0.0
1001
REVIT
1002
{
1070
     1
1000
610927
1002
}
1002
{
1070
     5
1000
1703
1002
}
1002
{
1070
     2
1000
-2000011
1002
}
  0
LINE
  5
14E
330
70
100
AcDbEntity
  8
A-WALL
370
    60
100
AcDbLine
 10
-160.7387358765016
 20
-228.9405677615365
 30
0.0
 11
59.63626412349856
 21
-228.9405677615372
 31
0.0
1001
REVIT
1002
{
1070
     1
1000
610927
1002
}
1002
{
1070
     5
1000
1703
1002
}
1002
{
1070
     2
1000
-2000011
1002
}
  0
LINE
  5
14F
330
70
100
AcDbEntity
  8
A-WALL
370
    60
100
AcDbLine
 10
67.2612641234986
 20
-228.9405677615372
 30
0.0
 11
227.6362641234995
 21
-228.9405677615377
 31
0.0
1001
REVIT
1002
{
1070
     1
1000
610927
1002
}
1002
{
1070
     5
1000
1703
1002
}
1002
{
1070
     2
1000
-2000011
1002
}
  0
LINE
  5
150
330
70
100
AcDbEntity
  8
A-WALL
370
    60
100
AcDbLine
 10
235.2612641234995
 20
-228.9405677615377
 30
0.0
 11
371.6362641234995
 21
-228.9405677615381
 31
0.0
1001
REVIT
1002
{
1070
     1
1000
610927
1002
}
1002
{
1070
     5
1000
1703
1002
}
1002
{
1070
     2
1000
-2000011
1002
}
  0
HATCH
  5
155
330
70
100
AcDbEntity
  8
A-WALL-PATT
370
     9
100
AcDbHatch
 10
0.0
 20
0.0
 30
0.0
210
0.0
220
0.0
230
1.0
  2
FP_2
 70
     0
 71
     0
 91
        1
 92
        1
 93
        4
 72
     1
 10
-76.73873587650136
 20
-221.315567761537
 11
-76.73873587650136
 21
-24.94056776153681
 72
     1
 10
-76.73873587650136
 20
-24.94056776153681
 11
-84.36373587650143
 21
-24.94056776153681
 72
     1
 10
-84.36373587650143
 20
-24.94056776153681
 11
-84.36373587650143
 21
-221.315567761537
 72
     1
 10
-84.36373587650143
 20
-221.315567761537
 11
-76.73873587650136
 21
-221.315567761537
 97
        0
 75
     0
 76
     2
 52
0.0
 41
1.0
 77
     0
 78
     2
 53
45.0
 43
0.0
 44
0.0
 45
-4.242640687119285
 46
4.242640687119285
 79
     0
 53
135.0
 43
0.0
 44
0.0
 45
-4.242640687119285
 46
-4.242640687119284
 79
     0
 98
        1
 10
0.0
 20
0.0
1001
REVIT
1002
{
1070
     1
1000
617628
1002
}
1002
{
1070
     5
1000
1703
1002
}
1002
{
1070
     4
1000
26
1002
}
1002
{
1070
     2
1000
-2000011
1002
}
1002
{
1070
     3
1000
-2000588
1002
}
  0
LINE
  5
156
330
70
100
AcDbEntity
  8
A-WALL
370
    60
100
AcDbLine
 10
-76.73873587650155
 20
-221.3155677615367
 30
0.0
 11
-76.73873587650122
 21
-24.94056776153672
 31
0.0
1001
REVIT
1002
{
1070
     1
1000
617628
1002
}
1002
{
1070
     5
1000
1703
1002
}
1002
{
1070
     2
1000
-2000011
1002
}
  0
LINE
  5
157
330
70
100
AcDbEntity
  8
A-WALL
370
    60
100
AcDbLine
 10
-84.36373587650123
 20
-24.94056776153672
 30
0.0
 11
-84.36373587650155
 21
-221.3155677615367
 31
0.0
1001
REVIT
1002
{
1070
     1
1000
617628
1002
}
1002
{
1070
     5
1000
1703
1002
}
1002
{
1070
     2
1000
-2000011
1002
}
  0
HATCH
  5
15D
330
70
100
AcDbEntity
  8
A-WALL-PATT
370
     9
100
AcDbHatch
 10
0.0
 20
0.0
 30
0.0
210
0.0
220
0.0
230
1.0
  2
FP_2
 70
     0
 71
     0
 91
        1
 92
        1
 93
        5
 72
     1
 10
371.6362641235
 20
-24.94056776154448
 11
371.6362641235
 21
-17.31556776153828
 72
     1
 10
371.6362641235
 20
-17.31556776153828
 11
-160.5512358765013
 21
-17.31556776153658
 72
     1
 10
-160.5512358765012
 20
-17.31556776153658
 11
-160.5512358765012
 21
-24.94056776153681
 72
     1
 10
-160.5512358765012
 20
-24.94056776153681
 11
203.1212832989543
 21
-24.94056776154167
 72
     1
 10
203.1212832989543
 20
-24.94056776154167
 11
371.6362641235
 21
-24.94056776154448
 97
        0
 75
     0
 76
     2
 52
0.0
 41
1.0
 77
     0
 78
     2
 53
45.0
 43
0.0
 44
0.0
 45
-4.242640687119285
 46
4.242640687119285
 79
     0
 53
135.0
 43
0.0
 44
0.0
 45
-4.242640687119285
 46
-4.242640687119284
 79
     0
 98
        1
 10
0.0
 20
0.0
1001
REVIT
1002
{
1070
     1
1000
617692
1002
}
1002
{
1070
     5
1000
1703
1002
}
1002
{
1070
     4
1000
26
1002
}
1002
{
1070
     2
1000
-2000011
1002
}
1002
{
1070
     3
1000
-2000588
1002
}
  0
LINE
  5
15E
330
70
100
AcDbEntity
  8
A-WALL
370
    60
100
AcDbLine
 10
371.6362641234998
 20
-17.31556776153822
 30
0.0
 11
163.2612641234999
 21
-17.31556776153754
 31
0.0
1001
REVIT
1002
{
1070
     1
1000
617692
1002
}
1002
{
1070
     5
1000
1703
1002
}
1002
{
1070
     2
1000
-2000011
1002
}
  0
LINE
  5
15F
330
70
100
AcDbEntity
  8
A-WALL
370
    60
100
AcDbLine
 10
155.6362641235
 20
-17.31556776153751
 30
0.0
 11
55.26126412349995
 21
-17.31556776153718
 31
0.0
1001
REVIT
1002
{
1070
     1
1000
617692
1002
}
1002
{
1070
     5
1000
1703
1002
}
1002
{
1070
     2
1000
-2000011
1002
}
  0
LINE
  5
160
330
70
100
AcDbEntity
  8
A-WALL
370
    60
100
AcDbLine
 10
47.63626412349996
 20
-17.31556776153716
 30
0.0
 11
-160.7387358765012
 21
-17.31556776153647
 31
0.0
1001
REVIT
1002
{
1070
     1
1000
617692
1002
}
1002
{
1070
     5
1000
1703
1002
}
1002
{
1070
     2
1000
-2000011
1002
}
  0
LINE
  5
161
330
70
100
AcDbEntity
  8
A-WALL
370
    60
100
AcDbLine
 10
-160.5512358765011
 20
-17.31556776153647
 30
0.0
 11
-160.5512358765011
 21
-24.94056776153647
 31
0.0
1001
REVIT
1002
{
1070
     1
1000
617692
1002
}
1002
{
1070
     5
1000
1703
1002
}
1002
{
1070
     2
1000
-2000011
1002
}
  0
LINE
  5
162
330
70
100
AcDbEntity
  8
A-WALL
370
    60
100
AcDbLine
 10
-168.3637358765012
 20
-24.94056776153638
 30
0.0
 11
-84.36373587650122
 21
-24.94056776153672
 31
0.0
1001
REVIT
1002
{
1070
     1
1000
617692
1002
}
1002
{
1070
     5
1000
1703
1002
}
1002
{
1070
     2
1000
-2000011
1002
}
  0
LINE
  5
163
330
70
100
AcDbEntity
  8
A-WALL
370
    60
100
AcDbLine
 10
-76.73873587650127
 20
-24.94056776153675
 30
0.0
 11
191.6362641234988
 21
-24.94056776153763
 31
0.0
1001
REVIT
1002
{
1070
     1
1000
617692
1002
}
1002
{
1070
     5
1000
1703
1002
}
1002
{
1070
     2
1000
-2000011
1002
}
  0
LINE
  5
164
330
70
100
AcDbEntity
  8
A-WALL
370
    60
100
AcDbLine
 10
199.2612641234988
 20
-24.94056776153765
 30
0.0
 11
371.6362641234997
 21
-24.94056776153822
 31
0.0
1001
REVIT
1002
{
1070
     1
1000
617692
1002
}
1002
{
1070
     5
1000
1703
1002
}
1002
{
1070
     2
1000
-2000011
1002
}
  0
HATCH
  5
16A
330
70
100
AcDbEntity
  8
A-WALL-PATT
370
     9
100
AcDbHatch
 10
0.0
 20
0.0
 30
0.0
210
0.0
220
0.0
230
1.0
  2
FP_2
 70
     0
 71
     0
 91
        1
 92
        1
 93
        5
 72
     1
 10
191.6362641234985
 20
-221.3155677615378
 11
199.2612641234989
 21
-221.3155677615378
 72
     1
 10
199.2612641234989
 20
-221.3155677615378
 11
199.2612641235168
 21
-24.94056776154167
 72
     1
 10
199.2612641235168
 20
-24.94056776154167
 11
191.6362641234992
 21
-24.9405677615415
 72
     1
 10
191.6362641234992
 20
-24.9405677615415
 11
191.6362641234985
 21
-90.94056776153841
 72
     1
 10
191.6362641234985
 20
-90.94056776153841
 11
191.6362641234985
 21
-221.3155677615379
 97
        0
 75
     0
 76
     2
 52
0.0
 41
1.0
 77
     0
 78
     2
 53
45.0
 43
0.0
 44
0.0
 45
-4.242640687119285
 46
4.242640687119285
 79
     0
 53
135.0
 43
0.0
 44
0.0
 45
-4.242640687119285
 46
-4.242640687119284
 79
     0
 98
        1
 10
0.0
 20
0.0
1001
REVIT
1002
{
1070
     1
1000
617962
1002
}
1002
{
1070
     5
1000
1703
1002
}
1002
{
1070
     4
1000
26
1002
}
1002
{
1070
     2
1000
-2000011
1002
}
1002
{
1070
     3
1000
-2000588
1002
}
  0
LINE
  5
16B
330
70
100
AcDbEntity
  8
A-WALL
370
    60
100
AcDbLine
 10
191.6362641234988
 20
-24.94056776153762
 30
0.0
 11
191.6362641234984
 21
-221.3155677615376
 31
0.0
1001
REVIT
1002
{
1070
     1
1000
617962
1002
}
1002
{
1070
     5
1000
1703
1002
}
1002
{
1070
     2
1000
-2000011
1002
}
  0
LINE
  5
16C
330
70
100
AcDbEntity
  8
A-WALL
370
    60
100
AcDbLine
 10
199.2612641234984
 20
-221.3155677615376
 30
0.0
 11
199.2612641234986
 21
-90.94056776153768
 31
0.0
1001
REVIT
1002
{
1070
     1
1000
617962
1002
}
1002
{
1070
     5
1000
1703
1002
}
1002
{
1070
     2
1000
-2000011
1002
}
  0
LINE
  5
16D
330
70
100
AcDbEntity
  8
A-WALL
370
    60
100
AcDbLine
 10
199.2612641234987
 20
-83.31556776153767
 30
0.0
 11
199.2612641234988
 21
-24.94056776153766
 31
0.0
1001
REVIT
1002
{
1070
     1
1000
617962
1002
}
1002
{
1070
     5
1000
1703
1002
}
1002
{
1070
     2
1000
-2000011
1002
}
  0
HATCH
  5
173
330
70
100
AcDbEntity
  8
A-WALL-PATT
370
     9
100
AcDbHatch
 10
0.0
 20
0.0
 30
0.0
210
0.0
220
0.0
230
1.0
  2
FP_2
 70
     0
 71
     0
 91
        1
 92
        1
 93
        5
 72
     1
 10
155.6362641235
 20
-17.31556776153828
 11
163.2612641235001
 21
-17.31556776153828
 72
     1
 10
163.2612641235001
 20
-17.31556776153828
 11
163.2612641235004
 21
162.6844322384625
 72
     1
 10
163.2612641235004
 20
162.6844322384625
 11
155.6362641235
 21
162.6844322384625
 72
     1
 10
155.6362641235
 20
162.6844322384625
 11
155.6362641235
 21
152.2445577548908
 72
     1
 10
155.6362641235
 20
152.2445577548908
 11
155.6362641235
 21
-17.31556776153829
 97
        0
 75
     0
 76
     2
 52
0.0
 41
1.0
 77
     0
 78
     2
 53
45.0
 43
0.0
 44
0.0
 45
-4.242640687119285
 46
4.242640687119285
 79
     0
 53
135.0
 43
0.0
 44
0.0
 45
-4.242640687119285
 46
-4.242640687119284
 79
     0
 98
        1
 10
0.0
 20
0.0
1001
REVIT
1002
{
1070
     1
1000
618566
1002
}
1002
{
1070
     5
1000
1703
1002
}
1002
{
1070
     4
1000
26
1002
}
1002
{
1070
     2
1000
-2000011
1002
}
1002
{
1070
     3
1000
-2000588
1002
}
  0
LINE
  5
174
330
70
100
AcDbEntity
  8
A-WALL
370
    60
100
AcDbLine
 10
163.2612641234999
 20
-17.31556776153753
 30
0.0
 11
163.2612641235002
 21
155.0594322384625
 31
0.0
1001
REVIT
1002
{
1070
     1
1000
618566
1002
}
1002
{
1070
     5
1000
1703
1002
}
1002
{
1070
     2
1000
-2000011
1002
}
  0
LINE
  5
176
330
70
100
AcDbEntity
  8
A-WALL
370
    60
100
AcDbLine
 10
155.6362641235002
 20
162.6844322384624
 30
0.0
 11
155.6362641234999
 21
-17.3155677615375
 31
0.0
1001
REVIT
1002
{
1070
     1
1000
618566
1002
}
1002
{
1070
     5
1000
1703
1002
}
1002
{
1070
     2
1000
-2000011
1002
}
  0
HATCH
  5
17B
330
70
100
AcDbEntity
  8
A-WALL-PATT
370
     9
100
AcDbHatch
 10
0.0
 20
0.0
 30
0.0
210
0.0
220
0.0
230
1.0
  2
FP_2
 70
     0
 71
     0
 91
        1
 92
        1
 93
        4
 72
     1
 10
371.6362641235
 20
155.0594322384562
 11
371.6362641235
 21
162.684432238462
 72
     1
 10
371.6362641235
 20
162.684432238462
 11
163.2612641235004
 21
162.684432238462
 72
     1
 10
163.2612641235004
 20
162.684432238462
 11
163.2612641235004
 21
155.0594322384625
 72
     1
 10
163.2612641235004
 20
155.0594322384625
 11
371.6362641235
 21
155.0594322384562
 97
        0
 75
     0
 76
     2
 52
0.0
 41
1.0
 77
     0
 78
     2
 53
45.0
 43
0.0
 44
0.0
 45
-4.242640687119285
 46
4.242640687119285
 79
     0
 53
135.0
 43
0.0
 44
0.0
 45
-4.242640687119285
 46
-4.242640687119284
 79
     0
 98
        1
 10
0.0
 20
0.0
1001
REVIT
1002
{
1070
     1
1000
618637
1002
}
1002
{
1070
     5
1000
1703
1002
}
1002
{
1070
     4
1000
26
1002
}
1002
{
1070
     2
1000
-2000011
1002
}
1002
{
1070
     3
1000
-2000588
1002
}
  0
LINE
  5
17C
330
70
100
AcDbEntity
  8
A-WALL
370
    60
100
AcDbLine
 10
163.2612641235002
 20
155.0594322384624
 30
0.0
 11
371.6362641235
 21
155.0594322384617
 31
0.0
1001
REVIT
1002
{
1070
     1
1000
618637
1002
}
1002
{
1070
     5
1000
1703
1002
}
1002
{
1070
     2
1000
-2000011
1002
}
  0
LINE
  5
17D
330
70
100
AcDbEntity
  8
A-WALL
370
    60
100
AcDbLine
 10
371.6362641235
 20
162.6844322384617
 30
0.0
 11
283.2612641235
 21
162.684432238462
 31
0.0
1001
REVIT
1002
{
1070
     1
1000
618637
1002
}
1002
{
1070
     5
1000
1703
1002
}
1002
{
1070
     2
1000
-2000011
1002
}
  0
LINE
  5
17E
330
70
100
AcDbEntity
  8
A-WALL
370
    60
100
AcDbLine
 10
275.6362641235
 20
162.684432238462
 30
0.0
 11
155.6362641235002
 21
162.6844322384624
 31
0.0
1001
REVIT
1002
{
1070
     1
1000
618637
1002
}
1002
{
1070
     5
1000
1703
1002
}
1002
{
1070
     2
1000
-2000011
1002
}
  0
HATCH
  5
183
330
70
100
AcDbEntity
  8
A-WALL-PATT
370
     9
100
AcDbHatch
 10
0.0
 20
0.0
 30
0.0
210
0.0
220
0.0
230
1.0
  2
FP_2
 70
     0
 71
     0
 91
        1
 92
        1
 93
        4
 72
     1
 10
55.26126412350048
 20
-17.31556776153828
 11
55.26126412350048
 21
315.8504480747882
 72
     1
 10
55.26126412350048
 20
315.8504480747882
 11
47.63626412350247
 21
315.8504480747882
 72
     1
 10
47.63626412350247
 20
315.8504480747882
 11
47.63626412350026
 21
-17.31556776153735
 72
     1
 10
47.63626412350026
 20
-17.31556776153735
 11
55.26126412350048
 21
-17.31556776153828
 97
        0
 75
     0
 76
     2
 52
0.0
 41
1.0
 77
     0
 78
     2
 53
45.0
 43
0.0
 44
0.0
 45
-4.242640687119285
 46
4.242640687119285
 79
     0
 53
135.0
 43
0.0
 44
0.0
 45
-4.242640687119285
 46
-4.242640687119284
 79
     0
 98
        1
 10
0.0
 20
0.0
1001
REVIT
1002
{
1070
     1
1000
618800
1002
}
1002
{
1070
     5
1000
1703
1002
}
1002
{
1070
     4
1000
26
1002
}
1002
{
1070
     2
1000
-2000011
1002
}
1002
{
1070
     3
1000
-2000588
1002
}
  0
LINE
  5
184
330
70
100
AcDbEntity
  8
A-WALL
370
    60
100
AcDbLine
 10
55.26126412349995
 20
-17.31556776153718
 30
0.0
 11
55.26126412350047
 21
315.8504480747879
 31
0.0
1001
REVIT
1002
{
1070
     1
1000
618800
1002
}
1002
{
1070
     5
1000
1703
1002
}
1002
{
1070
     2
1000
-2000011
1002
}
  0
LINE
  5
185
330
70
100
AcDbEntity
  8
A-WALL
370
    60
100
AcDbLine
 10
47.63626412350048
 20
315.850448074788
 30
0.0
 11
47.63626412350023
 21
162.6844322384628
 31
0.0
1001
REVIT
1002
{
1070
     1
1000
618800
1002
}
1002
{
1070
     5
1000
1703
1002
}
1002
{
1070
     2
1000
-2000011
1002
}
  0
LINE
  5
186
330
70
100
AcDbEntity
  8
A-WALL
370
    60
100
AcDbLine
 10
47.63626412350023
 20
155.0594322384628
 30
0.0
 11
47.63626412349995
 21
-17.31556776153718
 31
0.0
1001
REVIT
1002
{
1070
     1
1000
618800
1002
}
1002
{
1070
     5
1000
1703
1002
}
1002
{
1070
     2
1000
-2000011
1002
}
  0
HATCH
  5
18D
330
70
100
AcDbEntity
  8
A-WALL-PATT
370
     9
100
AcDbHatch
 10
0.0
 20
0.0
 30
0.0
210
0.0
220
0.0
230
1.0
  2
FP_2
 70
     0
 71
     0
 91
        1
 92
        1
 93
        6
 72
     1
 10
-5.244984630442728
 20
155.0594322384629
 11
47.63626412350026
 21
155.0594322384629
 72
     1
 10
47.63626412350026
 20
155.0594322384629
 11
47.63626412350026
 21
162.6844322384632
 72
     1
 10
47.63626412350026
 20
162.6844322384632
 11
-160.7387358765012
 21
162.6844322384632
 72
     1
 10
-160.7387358765012
 20
162.6844322384632
 11
-160.7387358765012
 21
155.0594322384629
 72
     1
 10
-160.7387358765012
 20
155.0594322384629
 11
-76.73873587650136
 21
155.0594322384629
 72
     1
 10
-76.73873587650136
 20
155.0594322384629
 11
-5.244984630442729
 21
155.0594322384629
 97
        0
 75
     0
 76
     2
 52
0.0
 41
1.0
 77
     0
 78
     2
 53
45.0
 43
0.0
 44
0.0
 45
-4.242640687119285
 46
4.242640687119285
 79
     0
 53
135.0
 43
0.0
 44
0.0
 45
-4.242640687119285
 46
-4.242640687119284
 79
     0
 98
        1
 10
0.0
 20
0.0
1001
REVIT
1002
{
1070
     1
1000
618869
1002
}
1002
{
1070
     5
1000
1703
1002
}
1002
{
1070
     4
1000
26
1002
}
1002
{
1070
     2
1000
-2000011
1002
}
1002
{
1070
     3
1000
-2000588
1002
}
  0
LINE
  5
18E
330
70
100
AcDbEntity
  8
A-WALL
370
    60
100
AcDbLine
 10
47.63626412350025
 20
162.6844322384628
 30
0.0
 11
-52.738735876501
 21
162.6844322384631
 31
0.0
1001
REVIT
1002
{
1070
     1
1000
618869
1002
}
1002
{
1070
     5
1000
1703
1002
}
1002
{
1070
     2
1000
-2000011
1002
}
  0
LINE
  5
18F
330
70
100
AcDbEntity
  8
A-WALL
370
    60
100
AcDbLine
 10
-60.36373587650098
 20
162.6844322384631
 30
0.0
 11
-160.7387358765009
 21
162.6844322384634
 31
0.0
1001
REVIT
1002
{
1070
     1
1000
618869
1002
}
1002
{
1070
     5
1000
1703
1002
}
1002
{
1070
     2
1000
-2000011
1002
}
  0
LINE
  5
190
330
70
100
AcDbEntity
  8
A-WALL
370
    60
100
AcDbLine
 10
-160.7387358765009
 20
155.0594322384634
 30
0.0
 11
47.63626412350023
 21
155.0594322384628
 31
0.0
1001
REVIT
1002
{
1070
     1
1000
618869
1002
}
1002
{
1070
     5
1000
1703
1002
}
1002
{
1070
     2
1000
-2000011
1002
}
  0
HATCH
  5
195
330
70
100
AcDbEntity
  8
A-WALL-PATT
370
     9
100
AcDbHatch
 10
0.0
 20
0.0
 30
0.0
210
0.0
220
0.0
230
1.0
  2
FP_2
 70
     0
 71
     0
 91
        1
 92
        1
 93
        4
 72
     1
 10
-160.5512358765012
 20
-24.94056776153681
 11
-160.5512358765012
 21
-17.31556776153658
 72
     1
 10
-160.5512358765012
 20
-17.31556776153658
 11
-160.7387358765012
 21
-17.31556776153624
 72
     1
 10
-160.7387358765012
 20
-17.31556776153624
 11
-160.7387358765012
 21
-24.94056776153681
 72
     1
 10
-160.7387358765012
 20
-24.94056776153681
 11
-160.5512358765012
 21
-24.94056776153681
 97
        0
 75
     0
 76
     2
 52
0.0
 41
1.0
 77
     0
 78
     2
 53
45.0
 43
0.0
 44
0.0
 45
-4.242640687119285
 46
4.242640687119285
 79
     0
 53
135.0
 43
0.0
 44
0.0
 45
-4.242640687119285
 46
-4.242640687119284
 79
     0
 98
        1
 10
0.0
 20
0.0
1001
REVIT
1002
{
1070
     1
1000
621802
1002
}
1002
{
1070
     5
1000
1703
1002
}
1002
{
1070
     4
1000
26
1002
}
1002
{
1070
     2
1000
-2000011
1002
}
1002
{
1070
     3
1000
-2000588
1002
}
  0
HATCH
  5
19D
330
70
100
AcDbEntity
  8
A-WALL-PATT
370
     9
100
AcDbHatch
 10
0.0
 20
0.0
 30
0.0
210
0.0
220
0.0
230
1.0
  2
FP_2
 70
     0
 71
     0
 91
        1
 92
        1
 93
        4
 72
     1
 10
-168.3637358765009
 20
-24.94056776153681
 11
-160.7387358765012
 21
-24.94056776153681
 72
     1
 10
-160.7387358765012
 20
-24.94056776153681
 11
-160.7387358765012
 21
315.8504480747882
 72
     1
 10
-160.7387358765012
 20
315.8504480747882
 11
-168.3637358765009
 21
315.8504480747882
 72
     1
 10
-168.3637358765009
 20
315.8504480747882
 11
-168.3637358765009
 21
-24.94056776153679
 97
        0
 75
     0
 76
     2
 52
0.0
 41
1.0
 77
     0
 78
     2
 53
45.0
 43
0.0
 44
0.0
 45
-4.242640687119285
 46
4.242640687119285
 79
     0
 53
135.0
 43
0.0
 44
0.0
 45
-4.242640687119285
 46
-4.242640687119284
 79
     0
 98
        1
 10
0.0
 20
0.0
1001
REVIT
1002
{
1070
     1
1000
621816
1002
}
1002
{
1070
     5
1000
1703
1002
}
1002
{
1070
     4
1000
26
1002
}
1002
{
1070
     2
1000
-2000011
1002
}
1002
{
1070
     3
1000
-2000588
1002
}
  0
LINE
  5
19E
330
70
100
AcDbEntity
  8
A-WALL
370
    60
100
AcDbLine
 10
-160.7387358765012
 20
-17.31556776153647
 30
0.0
 11
-160.7387358765009
 21
155.0594322384634
 31
0.0
1001
REVIT
1002
{
1070
     1
1000
621816
1002
}
1002
{
1070
     5
1000
1703
1002
}
1002
{
1070
     2
1000
-2000011
1002
}
  0
LINE
  5
19F
330
70
100
AcDbEntity
  8
A-WALL
370
    60
100
AcDbLine
 10
-160.7387358765009
 20
162.6844322384634
 30
0.0
 11
-160.7387358765007
 21
315.8504480747887
 31
0.0
1001
REVIT
1002
{
1070
     1
1000
621816
1002
}
1002
{
1070
     5
1000
1703
1002
}
1002
{
1070
     2
1000
-2000011
1002
}
  0
LINE
  5
1A0
330
70
100
AcDbEntity
  8
A-WALL
370
    60
100
AcDbLine
 10
-168.3637358765007
 20
323.4754480747887
 30
0.0
 11
-168.3637358765012
 21
-24.94056776153638
 31
0.0
1001
REVIT
1002
{
1070
     1
1000
621816
1002
}
1002
{
1070
     5
1000
1703
1002
}
1002
{
1070
     2
1000
-2000011
1002
}
  0
HATCH
  5
1A6
330
70
100
AcDbEntity
  8
A-WALL-PATT
370
     9
100
AcDbHatch
 10
0.0
 20
0.0
 30
0.0
210
0.0
220
0.0
230
1.0
  2
FP_2
 70
     0
 71
     0
 91
        1
 92
        1
 93
        4
 72
     1
 10
199.2612641234989
 20
-90.94056776153841
 11
371.6362641235
 21
-90.94056776153841
 72
     1
 10
371.6362641235
 20
-90.94056776153841
 11
371.6362641235
 21
-83.31556776152728
 72
     1
 10
371.6362641235
 20
-83.31556776152728
 11
199.2612641234989
 21
-83.3155677615324
 72
     1
 10
199.2612641234989
 20
-83.3155677615324
 11
199.2612641234989
 21
-90.94056776153841
 97
        0
 75
     0
 76
     2
 52
0.0
 41
1.0
 77
     0
 78
     2
 53
45.0
 43
0.0
 44
0.0
 45
-4.242640687119285
 46
4.242640687119285
 79
     0
 53
135.0
 43
0.0
 44
0.0
 45
-4.242640687119285
 46
-4.242640687119284
 79
     0
 98
        1
 10
0.0
 20
0.0
1001
REVIT
1002
{
1070
     1
1000
622040
1002
}
1002
{
1070
     5
1000
1703
1002
}
1002
{
1070
     4
1000
26
1002
}
1002
{
1070
     2
1000
-2000011
1002
}
1002
{
1070
     3
1000
-2000588
1002
}
  0
LINE
  5
1A7
330
70
100
AcDbEntity
  8
A-WALL
370
    60
100
AcDbLine
 10
199.2612641234986
 20
-90.94056776153768
 30
0.0
 11
371.6362641234996
 21
-90.94056776153825
 31
0.0
1001
REVIT
1002
{
1070
     1
1000
622040
1002
}
1002
{
1070
     5
1000
1703
1002
}
1002
{
1070
     2
1000
-2000011
1002
}
  0
LINE
  5
1A8
330
70
100
AcDbEntity
  8
A-WALL
370
    60
100
AcDbLine
 10
371.6362641234996
 20
-83.31556776153824
 30
0.0
 11
199.2612641234986
 21
-83.31556776153767
 31
0.0
1001
REVIT
1002
{
1070
     1
1000
622040
1002
}
1002
{
1070
     5
1000
1703
1002
}
1002
{
1070
     2
1000
-2000011
1002
}
  0
HATCH
  5
1AD
330
70
100
AcDbEntity
  8
A-WALL-PATT
370
     9
100
AcDbHatch
 10
0.0
 20
0.0
 30
0.0
210
0.0
220
0.0
230
1.0
  2
FP_2
 70
     0
 71
     0
 91
        1
 92
        1
 93
        4
 72
     1
 10
-52.73873587650086
 20
162.6844322384632
 11
-52.73873587649489
 21
315.8504480747882
 72
     1
 10
-52.73873587649489
 20
315.8504480747882
 11
-60.36373587650109
 21
315.8504480747882
 72
     1
 10
-60.36373587650109
 20
315.8504480747882
 11
-60.36373587650109
 21
162.6844322384632
 72
     1
 10
-60.36373587650109
 20
162.6844322384632
 11
-52.73873587650086
 21
162.6844322384632
 97
        0
 75
     0
 76
     2
 52
0.0
 41
1.0
 77
     0
 78
     2
 53
45.0
 43
0.0
 44
0.0
 45
-4.242640687119285
 46
4.242640687119285
 79
     0
 53
135.0
 43
0.0
 44
0.0
 45
-4.242640687119285
 46
-4.242640687119284
 79
     0
 98
        1
 10
0.0
 20
0.0
1001
REVIT
1002
{
1070
     1
1000
622215
1002
}
1002
{
1070
     5
1000
1703
1002
}
1002
{
1070
     4
1000
26
1002
}
1002
{
1070
     2
1000
-2000011
1002
}
1002
{
1070
     3
1000
-2000588
1002
}
  0
LINE
  5
1AE
330
70
100
AcDbEntity
  8
A-WALL
370
    60
100
AcDbLine
 10
-60.36373587650075
 20
315.8504480747883
 30
0.0
 11
-60.36373587650099
 21
162.6844322384632
 31
0.0
1001
REVIT
1002
{
1070
     1
1000
622215
1002
}
1002
{
1070
     5
1000
1703
1002
}
1002
{
1070
     2
1000
-2000011
1002
}
  0
LINE
  5
1AF
330
70
100
AcDbEntity
  8
A-WALL
370
    60
100
AcDbLine
 10
-52.73873587650099
 20
162.6844322384631
 30
0.0
 11
-52.73873587650076
 21
315.8504480747883
 31
0.0
1001
REVIT
1002
{
1070
     1
1000
622215
1002
}
1002
{
1070
     5
1000
1703
1002
}
1002
{
1070
     2
1000
-2000011
1002
}
  0
HATCH
  5
1B4
330
70
100
AcDbEntity
  8
A-WALL-PATT
370
     9
100
AcDbHatch
 10
0.0
 20
0.0
 30
0.0
210
0.0
220
0.0
230
1.0
  2
FP_2
 70
     0
 71
     0
 91
        1
 92
        1
 93
        4
 72
     1
 10
283.2612641235006
 20
162.684432238462
 11
283.2612641235006
 21
315.8504480747882
 72
     1
 10
283.2612641235006
 20
315.8504480747882
 11
275.6362641235004
 21
315.8504480747882
 72
     1
 10
275.6362641235004
 20
315.8504480747882
 11
275.6362641235004
 21
162.684432238462
 72
     1
 10
275.6362641235004
 20
162.684432238462
 11
283.2612641235006
 21
162.684432238462
 97
        0
 75
     0
 76
     2
 52
0.0
 41
1.0
 77
     0
 78
     2
 53
45.0
 43
0.0
 44
0.0
 45
-4.242640687119285
 46
4.242640687119285
 79
     0
 53
135.0
 43
0.0
 44
0.0
 45
-4.242640687119285
 46
-4.242640687119284
 79
     0
 98
        1
 10
0.0
 20
0.0
1001
REVIT
1002
{
1070
     1
1000
623204
1002
}
1002
{
1070
     5
1000
1703
1002
}
1002
{
1070
     4
1000
26
1002
}
1002
{
1070
     2
1000
-2000011
1002
}
1002
{
1070
     3
1000
-2000588
1002
}
  0
LINE
  5
1B5
330
70
100
AcDbEntity
  8
A-WALL
370
    60
100
AcDbLine
 10
275.6362641235003
 20
315.8504480747873
 30
0.0
 11
275.6362641235
 21
162.684432238462
 31
0.0
1001
REVIT
1002
{
1070
     1
1000
623204
1002
}
1002
{
1070
     5
1000
1703
1002
}
1002
{
1070
     2
1000
-2000011
1002
}
  0
LINE
  5
1B6
330
70
100
AcDbEntity
  8
A-WALL
370
    60
100
AcDbLine
 10
283.2612641235001
 20
162.684432238462
 30
0.0
 11
283.2612641235003
 21
315.8504480747873
 31
0.0
1001
REVIT
1002
{
1070
     1
1000
623204
1002
}
1002
{
1070
     5
1000
1703
1002
}
1002
{
1070
     2
1000
-2000011
1002
}
  0
HATCH
  5
1BB
330
70
100
AcDbEntity
  8
A-WALL-PATT
370
     9
100
AcDbHatch
 10
0.0
 20
0.0
 30
0.0
210
0.0
220
0.0
230
1.0
  2
FP_2
 70
     0
 71
     0
 91
        1
 92
        1
 93
        4
 72
     1
 10
235.2612641234998
 20
-539.3155677615377
 11
235.2612641234998
 21
-228.9405677615381
 72
     1
 10
235.2612641234998
 20
-228.9405677615381
 11
227.6362641234992
 21
-228.9405677615381
 72
     1
 10
227.6362641234992
 20
-228.9405677615381
 11
227.6362641234992
 21
-539.3155677615377
 72
     1
 10
227.6362641234992
 20
-539.3155677615377
 11
235.2612641234998
 21
-539.3155677615377
 97
        0
 75
     0
 76
     2
 52
0.0
 41
1.0
 77
     0
 78
     2
 53
45.0
 43
0.0
 44
0.0
 45
-4.242640687119285
 46
4.242640687119285
 79
     0
 53
135.0
 43
0.0
 44
0.0
 45
-4.242640687119285
 46
-4.242640687119284
 79
     0
 98
        1
 10
0.0
 20
0.0
1001
REVIT
1002
{
1070
     1
1000
623432
1002
}
1002
{
1070
     5
1000
1703
1002
}
1002
{
1070
     4
1000
26
1002
}
1002
{
1070
     2
1000
-2000011
1002
}
1002
{
1070
     3
1000
-2000588
1002
}
  0
LINE
  5
1BC
330
70
100
AcDbEntity
  8
A-WALL
370
    60
100
AcDbLine
 10
227.6362641234995
 20
-228.9405677615377
 30
0.0
 11
227.636264123499
 21
-539.3155677615371
 31
0.0
1001
REVIT
1002
{
1070
     1
1000
623432
1002
}
1002
{
1070
     5
1000
1703
1002
}
1002
{
1070
     2
1000
-2000011
1002
}
  0
LINE
  5
1BD
330
70
100
AcDbEntity
  8
A-WALL
370
    60
100
AcDbLine
 10
235.261264123499
 20
-539.3155677615371
 30
0.0
 11
235.2612641234995
 21
-228.9405677615377
 31
0.0
1001
REVIT
1002
{
1070
     1
1000
623432
1002
}
1002
{
1070
     5
1000
1703
1002
}
1002
{
1070
     2
1000
-2000011
1002
}
  0
ENDSEC
  0
SECTION
  2
OBJECTS
  0
DICTIONARY
  5
C
330
0
100
AcDbDictionary
281
     1
  3
ACAD_CIP_PREVIOUS_PRODUCT_INFO
350
79
  3
ACAD_COLOR
350
63
  3
ACAD_DETAILVIEWSTYLE
350
6A
  3
ACAD_GROUP
350
D
  3
ACAD_IMAGE_VARS
350
7A
  3
ACAD_LAYOUT
350
62
  3
ACAD_MATERIAL
350
10
  3
ACAD_MLEADERSTYLE
350
66
  3
ACAD_MLINESTYLE
350
5F
  3
ACAD_PLOTSETTINGS
350
61
  3
ACAD_PLOTSTYLENAME
350
E
  3
ACAD_SCALELIST
350
42
  3
ACAD_SECTIONVIEWSTYLE
350
68
  3
ACAD_TABLESTYLE
350
64
  3
ACAD_VISUALSTYLE
350
29
  3
ACDB_RECOMPOSE_DATA
350
1C9
  3
AcDbVariableDictionary
350
7B
  3
REVIT_DICTIONARY
350
1BE
  0
DICTIONARY
  5
1C5
330
70
100
AcDbDictionary
280
     1
281
     1
  3
ACAD_SORTENTS
360
1C6
  0
XRECORD
  5
79
102
{ACAD_REACTORS
330
C
102
}
330
C
100
AcDbXrecord
280
     1
300
RVTLT
300
2024
300
RVTLT2024
  0
DICTIONARY
  5
63
102
{ACAD_REACTORS
330
C
102
}
330
C
100
AcDbDictionary
281
     1
  0
DICTIONARY
  5
6A
102
{ACAD_REACTORS
330
C
102
}
330
C
100
AcDbDictionary
281
     1
  3
Imperial24
350
6B
  0
DICTIONARY
  5
D
102
{ACAD_REACTORS
330
C
102
}
330
C
100
AcDbDictionary
281
     1
  0
RASTERVARIABLES
  5
7A
102
{ACAD_REACTORS
330
C
102
}
330
C
100
AcDbRasterVariables
 90
        0
 70
     0
 71
     1
 72
     5
  0
DICTIONARY
  5
62
102
{ACAD_REACTORS
330
C
102
}
330
C
100
AcDbDictionary
281
     1
  3
Layout1
350
6F
  3
Layout2
350
77
  3
Model
350
73
  0
DICTIONARY
  5
10
102
{ACAD_REACTORS
330
C
102
}
330
C
100
AcDbDictionary
281
     1
  3
ByBlock
350
19
  3
ByLayer
350
11
  3
Global
350
21
  0
DICTIONARY
  5
66
102
{ACAD_REACTORS
330
C
102
}
330
C
100
AcDbDictionary
281
     1
  3
Standard
350
67
  0
DICTIONARY
  5
5F
102
{ACAD_REACTORS
330
C
102
}
330
C
100
AcDbDictionary
281
     1
  3
Standard
350
60
  0
DICTIONARY
  5
61
102
{ACAD_REACTORS
330
C
102
}
330
C
100
AcDbDictionary
281
     1
  0
ACDBDICTIONARYWDFLT
  5
E
102
{ACAD_REACTORS
330
C
102
}
330
C
100
AcDbDictionary
281
     1
  3
Normal
350
F
100
AcDbDictionaryWithDefault
340
F
  0
DICTIONARY
  5
42
102
{ACAD_REACTORS
330
C
102
}
330
C
100
AcDbDictionary
281
     1
  3
A0
350
43
  3
A1
350
44
  3
A2
350
45
  3
A3
350
46
  3
A4
350
47
  3
A5
350
48
  3
A6
350
49
  3
A7
350
4A
  3
A8
350
4B
  3
A9
350
4C
  3
B0
350
4D
  3
B1
350
4E
  3
B2
350
4F
  3
B3
350
50
  3
B4
350
51
  3
B5
350
52
  3
B6
350
53
  0
DICTIONARY
  5
68
102
{ACAD_REACTORS
330
C
102
}
330
C
100
AcDbDictionary
281
     1
  3
Imperial24
350
69
  0
DICTIONARY
  5
64
102
{ACAD_REACTORS
330
C
102
}
330
C
100
AcDbDictionary
281
     1
  3
Standard
350
65
  0
DICTIONARY
  5
29
102
{ACAD_REACTORS
330
C
102
}
330
C
100
AcDbDictionary
281
     1
  3
2dWireframe
350
2F
  3
Basic
350
2E
  3
Brighten
350
35
  3
ColorChange
350
39
  3
Conceptual
350
32
  3
Dim
350
34
  3
EdgeColorOff
350
41
  3
Facepattern
350
38
  3
Flat
350
2A
  3
FlatWithEdges
350
2B
  3
Gouraud
350
2C
  3
GouraudWithEdges
350
2D
  3
Hidden
350
31
  3
JitterOff
350
3F
  3
Linepattern
350
37
  3
OverhangOff
350
40
  3
Realistic
350
33
  3
Shaded
350
3E
  3
Shaded with edges
350
3D
  3
Shades of Gray
350
3A
  3
Sketchy
350
3B
  3
Thicken
350
36
  3
Wireframe
350
30
  3
X-Ray
350
3C
  0
XRECORD
  5
1C9
102
{ACAD_REACTORS
330
C
102
}
330
C
100
AcDbXrecord
280
     1
 90
        1
330
65
  0
DICTIONARY
  5
7B
102
{ACAD_REACTORS
330
C
102
}
330
C
100
AcDbDictionary
281
     1
  3
CANNOSCALE
350
80
  3
CMLEADERSTYLE
350
7D
  3
CTABLESTYLE
350
7C
  3
CVIEWDETAILSTYLE
350
7E
  3
CVIEWSECTIONSTYLE
350
7F
  0
DICTIONARY
  5
1BE
102
{ACAD_REACTORS
330
C
102
}
330
C
100
AcDbDictionary
281
     1
  3
DRAWING_TOOL
350
1C4
  3
REVIT_CATEGORY_MAPPING
350
1C2
  3
REVIT_GET_SITE
350
1BF
  3
REVIT_SUB_CATEGORY_MAPPING
350
1C3
  3
REVIT_TYPE_MAPPING
350
1C1
  0
SORTENTSTABLE
  5
1C6
102
{ACAD_REACTORS
330
1C5
102
}
330
1C5
100
AcDbSortentsTable
330
70
  0
ACDBDETAILVIEWSTYLE
  5
6B
102
{ACAD_REACTORS
330
6A
102
}
330
6A
100
AcDbModelDocViewStyle
 70
     0
  3
Imperial24
290
     1
300
Imperial24
 90
        0
100
AcDbDetailViewStyle
 70
     0
 71
     0
 90
        3
 71
     1
340
55
 62
   256
 40
0.24
340
0
 62
   256
 40
0.24
300

 40
0.36
280
     3
 71
     2
340
5D
 90
       25
 62
   256
 71
     3
340
55
 62
   256
 40
0.24
 90
        1
 40
0.75
 90
        1
300
%<\AcVar ViewType \f "%tc1">% %<\AcVar ViewDetailId>%\PSCALE %<\AcVar ViewScale \f "%sn">%
 71
     4
340
5D
 90
       25
 62
   256
340
5D
 90
       25
 62
   256
280
     0
  0
LAYOUT
  5
6F
102
{ACAD_REACTORS
330
62
102
}
330
62
100
AcDbPlotSettings
  1

  2

  4

  6

 40
0.0
 41
0.0
 42
0.0
 43
0.0
 44
0.0
 45
0.0
 46
0.0
 47
0.0
 48
0.0
 49
0.0
140
0.0
141
0.0
142
1.0
143
1.0
 70
   688
 72
     0
 73
     0
 74
     5
  7

 75
    16
147
1.0
 76
     0
 77
     2
 78
   300
148
0.0
149
0.0
100
AcDbLayout
  1
Layout1
 70
     1
 71
     1
 10
0.0
 20
0.0
 11
12.0
 21
9.0
 12
0.0
 22
0.0
 32
0.0
 14
0.0
 24
0.0
 34
0.0
 15
0.0
 25
0.0
 35
0.0
146
0.0
 13
0.0
 23
0.0
 33
0.0
 16
1.0
 26
0.0
 36
0.0
 17
0.0
 27
1.0
 37
0.0
 76
     0
330
6C
  0
LAYOUT
  5
77
102
{ACAD_REACTORS
330
62
102
}
330
62
100
AcDbPlotSettings
  1

  2

  4

  6

 40
0.0
 41
0.0
 42
0.0
 43
0.0
 44
0.0
 45
0.0
 46
0.0
 47
0.0
 48
0.0
 49
0.0
140
0.0
141
0.0
142
1.0
143
1.0
 70
   688
 72
     0
 73
     0
 74
     5
  7

 75
    16
147
1.0
 76
     0
 77
     2
 78
   300
148
0.0
149
0.0
100
AcDbLayout
  1
Layout2
 70
     1
 71
     2
 10
0.0
 20
0.0
 11
12.0
 21
9.0
 12
0.0
 22
0.0
 32
0.0
 14
0.0
 24
0.0
 34
0.0
 15
0.0
 25
0.0
 35
0.0
146
0.0
 13
0.0
 23
0.0
 33
0.0
 16
1.0
 26
0.0
 36
0.0
 17
0.0
 27
1.0
 37
0.0
 76
     0
330
74
  0
LAYOUT
  5
73
102
{ACAD_REACTORS
330
62
102
}
330
62
100
AcDbPlotSettings
  1

  2

  4

  6

 40
0.0
 41
0.0
 42
0.0
 43
0.0
 44
0.0
 45
0.0
 46
0.0
 47
0.0
 48
0.0
 49
0.0
140
0.0
141
0.0
142
1.0
143
1.0
 70
  1712
 72
     0
 73
     0
 74
     0
  7

 75
     0
147
1.0
 76
     0
 77
     2
 78
   300
148
0.0
149
0.0
100
AcDbLayout
  1
Model
 70
     1
 71
     0
 10
0.0
 20
0.0
 11
12.0
 21
9.0
 12
0.0
 22
0.0
 32
0.0
 14
0.0
 24
0.0
 34
0.0
 15
0.0
 25
0.0
 35
0.0
146
0.0
 13
0.0
 23
0.0
 33
0.0
 16
1.0
 26
0.0
 36
0.0
 17
0.0
 27
1.0
 37
0.0
 76
     0
330
70
  0
MATERIAL
  5
19
102
{ACAD_XDICTIONARY
360
1A
102
}
102
{ACAD_REACTORS
330
10
102
}
330
10
100
AcDbMaterial
  1
ByBlock
 72
     0
 43
0.0208333333333333
 43
0.0
 43
0.0
 43
0.0
 43
0.0
 43
0.0208333333333333
 43
0.0
 43
0.0
 43
0.0
 43
0.0
 43
1.0
 43
0.0
 43
0.0
 43
0.0
 43
0.0
 43
1.0
 77
     0
 47
0.0208333333333333
 47
0.0
 47
0.0
 47
0.0
 47
0.0
 47
0.0208333333333333
 47
0.0
 47
0.0
 47
0.0
 47
0.0
 47
1.0
 47
0.0
 47
0.0
 47
0.0
 47
0.0
 47
1.0
171
     0
 49
0.0208333333333333
 49
0.0
 49
0.0
 49
0.0
 49
0.0
 49
0.0208333333333333
 49
0.0
 49
0.0
 49
0.0
 49
0.0
 49
1.0
 49
0.0
 49
0.0
 49
0.0
 49
0.0
 49
1.0
175
     0
142
0.0208333333333333
142
0.0
142
0.0
142
0.0
142
0.0
142
0.0208333333333333
142
0.0
142
0.0
142
0.0
142
0.0
142
1.0
142
0.0
142
0.0
142
0.0
142
0.0
142
1.0
179
     0
144
0.0208333333333333
144
0.0
144
0.0
144
0.0
144
0.0
144
0.0208333333333333
144
0.0
144
0.0
144
0.0
144
0.0
144
1.0
144
0.0
144
0.0
144
0.0
144
0.0
144
1.0
147
0.0208333333333333
147
0.0
147
0.0
147
0.0
147
0.0
147
0.0208333333333333
147
0.0
147
0.0
147
0.0
147
0.0
147
1.0
147
0.0
147
0.0
147
0.0
147
0.0
147
1.0
  0
MATERIAL
  5
11
102
{ACAD_XDICTIONARY
360
12
102
}
102
{ACAD_REACTORS
330
10
102
}
330
10
100
AcDbMaterial
  1
ByLayer
 72
     0
 43
0.0208333333333333
 43
0.0
 43
0.0
 43
0.0
 43
0.0
 43
0.0208333333333333
 43
0.0
 43
0.0
 43
0.0
 43
0.0
 43
1.0
 43
0.0
 43
0.0
 43
0.0
 43
0.0
 43
1.0
 77
     0
 47
0.0208333333333333
 47
0.0
 47
0.0
 47
0.0
 47
0.0
 47
0.0208333333333333
 47
0.0
 47
0.0
 47
0.0
 47
0.0
 47
1.0
 47
0.0
 47
0.0
 47
0.0
 47
0.0
 47
1.0
171
     0
 49
0.0208333333333333
 49
0.0
 49
0.0
 49
0.0
 49
0.0
 49
0.0208333333333333
 49
0.0
 49
0.0
 49
0.0
 49
0.0
 49
1.0
 49
0.0
 49
0.0
 49
0.0
 49
0.0
 49
1.0
175
     0
142
0.0208333333333333
142
0.0
142
0.0
142
0.0
142
0.0
142
0.0208333333333333
142
0.0
142
0.0
142
0.0
142
0.0
142
1.0
142
0.0
142
0.0
142
0.0
142
0.0
142
1.0
179
     0
144
0.0208333333333333
144
0.0
144
0.0
144
0.0
144
0.0
144
0.0208333333333333
144
0.0
144
0.0
144
0.0
144
0.0
144
1.0
144
0.0
144
0.0
144
0.0
144
0.0
144
1.0
147
0.0208333333333333
147
0.0
147
0.0
147
0.0
147
0.0
147
0.0208333333333333
147
0.0
147
0.0
147
0.0
147
0.0
147
1.0
147
0.0
147
0.0
147
0.0
147
0.0
147
1.0
  0
MATERIAL
  5
21
102
{ACAD_XDICTIONARY
360
22
102
}
102
{ACAD_REACTORS
330
10
102
}
330
10
100
AcDbMaterial
  1
Global
 72
     0
 43
0.0208333333333333
 43
0.0
 43
0.0
 43
0.0
 43
0.0
 43
0.0208333333333333
 43
0.0
 43
0.0
 43
0.0
 43
0.0
 43
1.0
 43
0.0
 43
0.0
 43
0.0
 43
0.0
 43
1.0
 77
     0
 47
0.0208333333333333
 47
0.0
 47
0.0
 47
0.0
 47
0.0
 47
0.0208333333333333
 47
0.0
 47
0.0
 47
0.0
 47
0.0
 47
1.0
 47
0.0
 47
0.0
 47
0.0
 47
0.0
 47
1.0
171
     0
 49
0.0208333333333333
 49
0.0
 49
0.0
 49
0.0
 49
0.0
 49
0.0208333333333333
 49
0.0
 49
0.0
 49
0.0
 49
0.0
 49
1.0
 49
0.0
 49
0.0
 49
0.0
 49
0.0
 49
1.0
175
     0
142
0.0208333333333333
142
0.0
142
0.0
142
0.0
142
0.0
142
0.0208333333333333
142
0.0
142
0.0
142
0.0
142
0.0
142
1.0
142
0.0
142
0.0
142
0.0
142
0.0
142
1.0
179
     0
144
0.0208333333333333
144
0.0
144
0.0
144
0.0
144
0.0
144
0.0208333333333333
144
0.0
144
0.0
144
0.0
144
0.0
144
1.0
144
0.0
144
0.0
144
0.0
144
0.0
144
1.0
147
0.0208333333333333
147
0.0
147
0.0
147
0.0
147
0.0
147
0.0208333333333333
147
0.0
147
0.0
147
0.0
147
0.0
147
1.0
147
0.0
147
0.0
147
0.0
147
0.0
147
1.0
  0
MLEADERSTYLE
  5
67
102
{ACAD_REACTORS
330
66
102
}
330
66
100
AcDbMLeaderStyle
179
     2
170
     2
171
     1
172
     0
 90
        2
 40
0.0
 41
0.0
173
     1
 91
-1056964608
340
5B
 92
       -2
290
     1
 42
0.09
291
     1
 43
0.36
  3
Standard
 44
0.18
300

342
55
174
     1
178
     6
175
     1
176
     0
 93
-1056964608
 45
0.18
292
     0
297
     0
 46
0.18
 94
-1056964608
 47
1.0
 49
1.0
140
1.0
293
     1
141
0.0
294
     1
177
     0
142
1.0
295
     1
296
     0
143
0.125
271
     0
272
     9
273
     9
298
     1
  0
MLINESTYLE
  5
60
102
{ACAD_REACTORS
330
5F
102
}
330
5F
100
AcDbMlineStyle
  2
STANDARD
 70
     0
  3

 62
   256
 51
90.0
 52
90.0
 71
     2
 49
0.5
 62
   256
  6
BYLAYER
 49
-0.5
 62
   256
  6
BYLAYER
  0
ACDBPLACEHOLDER
  5
F
102
{ACAD_REACTORS
330
E
102
}
330
E
  0
SCALE
  5
43
102
{ACAD_REACTORS
330
42
102
}
330
42
100
AcDbScale
 70
     0
300
1:1
140
1.0
141
1.0
290
     1
  0
SCALE
  5
44
102
{ACAD_REACTORS
330
42
102
}
330
42
100
AcDbScale
 70
     0
300
1/128" = 1'-0"
140
0.0078125
141
12.0
290
     0
  0
SCALE
  5
45
102
{ACAD_REACTORS
330
42
102
}
330
42
100
AcDbScale
 70
     0
300
1/64" = 1'-0"
140
0.015625
141
12.0
290
     0
  0
SCALE
  5
46
102
{ACAD_REACTORS
330
42
102
}
330
42
100
AcDbScale
 70
     0
300
1/32" = 1'-0"
140
0.03125
141
12.0
290
     0
  0
SCALE
  5
47
102
{ACAD_REACTORS
330
42
102
}
330
42
100
AcDbScale
 70
     0
300
1/16" = 1'-0"
140
0.0625
141
12.0
290
     0
  0
SCALE
  5
48
102
{ACAD_REACTORS
330
42
102
}
330
42
100
AcDbScale
 70
     0
300
3/32" = 1'-0"
140
0.09375
141
12.0
290
     0
  0
SCALE
  5
49
102
{ACAD_REACTORS
330
42
102
}
330
42
100
AcDbScale
 70
     0
300
1/8" = 1'-0"
140
0.125
141
12.0
290
     0
  0
SCALE
  5
4A
102
{ACAD_REACTORS
330
42
102
}
330
42
100
AcDbScale
 70
     0
300
3/16" = 1'-0"
140
0.1875
141
12.0
290
     0
  0
SCALE
  5
4B
102
{ACAD_REACTORS
330
42
102
}
330
42
100
AcDbScale
 70
     0
300
1/4" = 1'-0"
140
0.25
141
12.0
290
     0
  0
SCALE
  5
4C
102
{ACAD_REACTORS
330
42
102
}
330
42
100
AcDbScale
 70
     0
300
3/8" = 1'-0"
140
0.375
141
12.0
290
     0
  0
SCALE
  5
4D
102
{ACAD_REACTORS
330
42
102
}
330
42
100
AcDbScale
 70
     0
300
1/2" = 1'-0"
140
0.5
141
12.0
290
     0
  0
SCALE
  5
4E
102
{ACAD_REACTORS
330
42
102
}
330
42
100
AcDbScale
 70
     0
300
3/4" = 1'-0"
140
0.75
141
12.0
290
     0
  0
SCALE
  5
4F
102
{ACAD_REACTORS
330
42
102
}
330
42
100
AcDbScale
 70
     0
300
1" = 1'-0"
140
1.0
141
12.0
290
     0
  0
SCALE
  5
50
102
{ACAD_REACTORS
330
42
102
}
330
42
100
AcDbScale
 70
     0
300
1-1/2" = 1'-0"
140
1.5
141
12.0
290
     0
  0
SCALE
  5
51
102
{ACAD_REACTORS
330
42
102
}
330
42
100
AcDbScale
 70
     0
300
3" = 1'-0"
140
3.0
141
12.0
290
     0
  0
SCALE
  5
52
102
{ACAD_REACTORS
330
42
102
}
330
42
100
AcDbScale
 70
     0
300
6" = 1'-0"
140
6.0
141
12.0
290
     0
  0
SCALE
  5
53
102
{ACAD_REACTORS
330
42
102
}
330
42
100
AcDbScale
 70
     0
300
1'-0" = 1'-0"
140
12.0
141
12.0
290
     0
  0
ACDBSECTIONVIEWSTYLE
  5
69
102
{ACAD_REACTORS
330
68
102
}
330
68
100
AcDbModelDocViewStyle
 70
     0
  3
Imperial24
290
     1
300
Imperial24
 90
        0
100
AcDbSectionViewStyle
 70
     0
 71
     0
 90
       78
 71
     1
340
55
 62
   256
 40
0.24
340
0
340
0
 62
   256
 40
0.24
300
I, O, Q, S, X, Z
 40
0.48
 90
        3
 40
0.18
 90
        1
 71
     2
340
5D
 90
       25
 62
   256
340
5D
 90
       50
 62
   256
 40
0.24
 40
0.0
 40
0.24
 71
     3
340
55
 62
   256
 40
0.24
 90
        1
 40
0.75
 90
        1
300
%<\AcVar ViewType \f "%tc1">% %<\AcVar ViewSectionStartId>%-%<\AcVar ViewSectionEndId>%\PSCALE %<\AcVar ViewScale \f "%sn">%
 71
     4
 62
   256
 62
   257
300
ANSI31
 40
1.0
 90
        0
290
     0
290
     0
 90
        6
 40
0.0
 40
1.570796326794896
 40
0.2617993877991494
 40
1.308996938995747
 40
-0.2617993877991494
 40
1.832595714594046
  0
TABLESTYLE
  5
65
102
{ACAD_XDICTIONARY
360
1C7
102
}
102
{ACAD_REACTORS
330
64
102
}
330
64
100
AcDbTableStyle
280
     0
  3
Standard
 70
     0
 71
     0
 40
0.06
 41
0.06
280
     0
281
     0
  7
Standard
140
0.18
170
     2
 62
     0
 63
     7
283
     0
 90
      512
 91
        0
  1

274
    -2
284
     1
 64
     0
275
    -2
285
     1
 65
     0
276
    -2
286
     1
 66
     0
277
    -2
287
     1
 67
     0
278
    -2
288
     1
 68
     0
279
    -2
289
     1
 69
     0
  7
Standard
140
0.25
170
     5
 62
     0
 63
     7
283
     0
 90
      512
 91
        0
  1

274
    -2
284
     1
 64
     0
275
    -2
285
     1
 65
     0
276
    -2
286
     1
 66
     0
277
    -2
287
     1
 67
     0
278
    -2
288
     1
 68
     0
279
    -2
289
     1
 69
     0
  7
Standard
140
0.18
170
     5
 62
     0
 63
     7
283
     0
 90
      512
 91
        0
  1

274
    -2
284
     1
 64
     0
275
    -2
285
     1
 65
     0
276
    -2
286
     1
 66
     0
277
    -2
287
     1
 67
     0
278
    -2
288
     1
 68
     0
279
    -2
289
     1
 69
     0
  0
VISUALSTYLE
  5
2F
102
{ACAD_REACTORS
330
29
102
}
330
29
100
AcDbVisualStyle
  2
2dWireframe
 70
     4
177
     3
291
     0
 70
    58
 90
        0
176
     1
 90
        2
176
     1
 90
        0
176
     1
 90
        0
176
     1
 40
0.6
176
     1
 40
30.0
176
     1
 62
     7
420
 16777215
176
     1
 90
        1
176
     1
 90
        4
176
     1
 62
     7
176
     1
 62
   257
176
     1
 90
        1
176
     1
 90
        1
176
     1
 40
1.0
176
     1
 90
        0
176
     1
 62
   257
176
     1
 40
1.0
176
     1
 90
        1
176
     1
 90
        6
176
     1
 90
        2
176
     1
 62
     7
176
     1
 90
        5
176
     1
 90
        0
176
     1
 90
        0
176
     1
290
     0
176
     1
 90
        1
176
     1
 40
0.0
176
     1
 90
        0
176
     1
290
     1
176
     1
290
     1
176
     1
290
     0
176
     1
290
     0
176
     1
290
     0
176
     1
290
     0
176
     1
290
     0
176
     1
290
     0
176
     1
290
     0
176
     1
 90
       50
176
     1
 40
0.0
176
     1
 40
1.0
176
     1
 90
        0
176
     1
 62
    18
420
        0
176
     1
 90
       50
176
     1
 90
        3
176
     1
 62
     5
420
      255
176
     1
290
     0
176
     1
 90
       50
176
     1
 90
       50
176
     1
 90
       50
176
     1
290
     0
176
     1
 90
       50
176
     1
 62
   256
176
     0
 40
1.0
176
     0
 90
        2
176
     1
  1
strokes_ogs.tif
176
     1
290
     0
176
     1
 40
1.0
176
     1
 40
1.0
176
     1
  0
VISUALSTYLE
  5
2E
102
{ACAD_REACTORS
330
29
102
}
330
29
100
AcDbVisualStyle
  2
Basic
 70
     7
177
     3
291
     1
 70
    58
 90
        1
176
     1
 90
        0
176
     1
 90
        1
176
     1
 90
        0
176
     1
 40
0.6
176
     1
 40
30.0
176
     1
 62
     7
420
 16777215
176
     1
 90
        0
176
     1
 90
        4
176
     1
 62
     7
176
     1
 62
   257
176
     1
 90
        1
176
     1
 90
        1
176
     1
 40
1.0
176
     1
 90
        8
176
     1
 62
     7
176
     1
 40
1.0
176
     1
 90
        1
176
     1
 90
        6
176
     1
 90
        2
176
     1
 62
     7
176
     1
 90
        5
176
     1
 90
        0
176
     1
 90
        0
176
     1
290
     0
176
     1
 90
        1
176
     1
 40
0.0
176
     1
 90
        0
176
     1
290
     0
176
     1
290
     1
176
     1
290
     1
176
     1
290
     0
176
     1
290
     0
176
     1
290
     0
176
     1
290
     0
176
     1
290
     0
176
     1
290
     0
176
     1
 90
       50
176
     1
 40
0.0
176
     1
 40
1.0
176
     1
 90
        0
176
     1
 62
    18
420
        0
176
     1
 90
       50
176
     1
 90
        3
176
     1
 62
     5
420
      255
176
     1
290
     0
176
     1
 90
       50
176
     1
 90
       50
176
     1
 90
       50
176
     1
290
     0
176
     1
 90
       50
176
     1
 62
   256
176
     0
 40
1.0
176
     0
 90
        2
176
     1
  1
strokes_ogs.tif
176
     1
290
     0
176
     1
 40
1.0
176
     1
 40
1.0
176
     1
  0
VISUALSTYLE
  5
35
102
{ACAD_REACTORS
330
29
102
}
330
29
100
AcDbVisualStyle
  2
Brighten
 70
    12
177
     3
291
     1
 70
    58
 90
        2
176
     1
 90
        2
176
     1
 90
        0
176
     1
 90
        0
176
     1
 40
0.6
176
     1
 40
30.0
176
     1
 62
     7
420
 16777215
176
     1
 90
        1
176
     1
 90
        4
176
     1
 62
     7
176
     1
 62
   257
176
     1
 90
        1
176
     1
 90
        1
176
     1
 40
1.0
176
     1
 90
        8
176
     1
 62
     7
176
     1
 40
1.0
176
     1
 90
        1
176
     1
 90
        6
176
     1
 90
        2
176
     1
 62
     7
176
     1
 90
        5
176
     1
 90
        0
176
     1
 90
        0
176
     1
290
     0
176
     1
 90
        1
176
     1
 40
50.0
176
     1
 90
        0
176
     1
290
     0
176
     1
290
     1
176
     1
290
     1
176
     1
290
     0
176
     1
290
     0
176
     1
290
     0
176
     1
290
     0
176
     1
290
     0
176
     1
290
     0
176
     1
 90
       50
176
     1
 40
0.0
176
     1
 40
1.0
176
     1
 90
        0
176
     1
 62
    18
420
        0
176
     1
 90
       50
176
     1
 90
        3
176
     1
 62
     5
420
      255
176
     1
290
     0
176
     1
 90
       50
176
     1
 90
       50
176
     1
 90
       50
176
     1
290
     0
176
     1
 90
       50
176
     1
 62
   256
176
     0
 40
1.0
176
     0
 90
        2
176
     1
  1
strokes_ogs.tif
176
     1
290
     0
176
     1
 40
1.0
176
     1
 40
1.0
176
     1
  0
VISUALSTYLE
  5
39
102
{ACAD_REACTORS
330
29
102
}
330
29
100
AcDbVisualStyle
  2
ColorChange
 70
    16
177
     3
291
     1
 70
    58
 90
        2
176
     1
 90
        2
176
     1
 90
        3
176
     1
 90
        0
176
     1
 40
0.6
176
     1
 40
30.0
176
     1
 62
     8
420
  8421504
176
     1
 90
        1
176
     1
 90
        4
176
     1
 62
     7
176
     1
 62
   257
176
     1
 90
        1
176
     1
 90
        1
176
     1
 40
1.0
176
     1
 90
        8
176
     1
 62
     8
420
  8421504
176
     1
 40
1.0
176
     1
 90
        1
176
     1
 90
        6
176
     1
 90
        2
176
     1
 62
     7
176
     1
 90
        5
176
     1
 90
        0
176
     1
 90
        0
176
     1
290
     0
176
     1
 90
        1
176
     1
 40
0.0
176
     1
 90
        0
176
     1
290
     0
176
     1
290
     1
176
     1
290
     1
176
     1
290
     0
176
     1
290
     0
176
     1
290
     0
176
     1
290
     0
176
     1
290
     0
176
     1
290
     0
176
     1
 90
       50
176
     1
 40
0.0
176
     1
 40
1.0
176
     1
 90
        0
176
     1
 62
    18
420
        0
176
     1
 90
       50
176
     1
 90
        3
176
     1
 62
     5
420
      255
176
     1
290
     0
176
     1
 90
       50
176
     1
 90
       50
176
     1
 90
       50
176
     1
290
     0
176
     1
 90
       50
176
     1
 62
   256
176
     0
 40
1.0
176
     0
 90
        2
176
     1
  1
strokes_ogs.tif
176
     1
290
     0
176
     1
 40
1.0
176
     1
 40
1.0
176
     1
  0
VISUALSTYLE
  5
32
102
{ACAD_REACTORS
330
29
102
}
330
29
100
AcDbVisualStyle
  2
Conceptual
 70
     9
177
     3
291
     0
 70
    58
 90
        3
176
     1
 90
        2
176
     1
 90
        0
176
     1
 90
        0
176
     1
 40
0.6
176
     1
 40
30.0
176
     1
 62
     7
420
 16777215
176
     1
 90
        2
176
     1
 90
        2
176
     1
 62
     7
176
     1
 62
   257
176
     1
 90
        1
176
     1
 90
        1
176
     1
 40
179.0
176
     1
 90
        8
176
     1
 62
     7
176
     1
 40
1.0
176
     1
 90
        1
176
     1
 90
        6
176
     1
 90
        2
176
     1
 62
     7
176
     1
 90
        3
176
     1
 90
        0
176
     1
 90
        0
176
     1
290
     0
176
     1
 90
        1
176
     1
 40
0.0
176
     1
 90
        0
176
     1
290
     0
176
     1
290
     1
176
     1
290
     1
176
     1
290
     0
176
     1
290
     0
176
     1
290
     0
176
     1
290
     0
176
     1
290
     0
176
     1
290
     0
176
     1
 90
       50
176
     1
 40
0.0
176
     1
 40
1.0
176
     1
 90
        0
176
     1
 62
    18
420
        0
176
     1
 90
       50
176
     1
 90
        3
176
     1
 62
     5
420
      255
176
     1
290
     0
176
     1
 90
       50
176
     1
 90
       50
176
     1
 90
       50
176
     1
290
     0
176
     1
 90
       50
176
     1
 62
   256
176
     0
 40
1.0
176
     0
 90
        2
176
     1
  1
strokes_ogs.tif
176
     1
290
     0
176
     1
 40
1.0
176
     1
 40
1.0
176
     1
  0
VISUALSTYLE
  5
34
102
{ACAD_REACTORS
330
29
102
}
330
29
100
AcDbVisualStyle
  2
Dim
 70
    11
177
     3
291
     1
 70
    58
 90
        2
176
     1
 90
        2
176
     1
 90
        0
176
     1
 90
        0
176
     1
 40
0.6
176
     1
 40
30.0
176
     1
 62
     7
420
 16777215
176
     1
 90
        1
176
     1
 90
        4
176
     1
 62
     7
176
     1
 62
   257
176
     1
 90
        1
176
     1
 90
        1
176
     1
 40
1.0
176
     1
 90
        8
176
     1
 62
     7
176
     1
 40
1.0
176
     1
 90
        1
176
     1
 90
        6
176
     1
 90
        2
176
     1
 62
     7
176
     1
 90
        5
176
     1
 90
        0
176
     1
 90
        0
176
     1
290
     0
176
     1
 90
        1
176
     1
 40
-50.0
176
     1
 90
        0
176
     1
290
     0
176
     1
290
     1
176
     1
290
     1
176
     1
290
     0
176
     1
290
     0
176
     1
290
     0
176
     1
290
     0
176
     1
290
     0
176
     1
290
     0
176
     1
 90
       50
176
     1
 40
0.0
176
     1
 40
1.0
176
     1
 90
        0
176
     1
 62
    18
420
        0
176
     1
 90
       50
176
     1
 90
        3
176
     1
 62
     5
420
      255
176
     1
290
     0
176
     1
 90
       50
176
     1
 90
       50
176
     1
 90
       50
176
     1
290
     0
176
     1
 90
       50
176
     1
 62
   256
176
     0
 40
1.0
176
     0
 90
        2
176
     1
  1
strokes_ogs.tif
176
     1
290
     0
176
     1
 40
1.0
176
     1
 40
1.0
176
     1
  0
VISUALSTYLE
  5
41
102
{ACAD_REACTORS
330
29
102
}
330
29
100
AcDbVisualStyle
  2
EdgeColorOff
 70
    22
177
     3
291
     1
 70
    58
 90
        2
176
     0
 90
        2
176
     0
 90
        0
176
     0
 90
        0
176
     0
 40
0.6
176
     0
 40
30.0
176
     0
 62
     7
420
 16777215
176
     0
 90
        1
176
     0
 90
        4
176
     0
 62
     7
176
     0
 62
   257
176
     0
 90
        1
176
     0
 90
        1
176
     0
 40
1.0
176
     0
 90
        8
176
     2
 62
     7
176
     0
 40
1.0
176
     0
 90
        1
176
     0
 90
        6
176
     0
 90
        2
176
     0
 62
     7
176
     0
 90
        5
176
     0
 90
        0
176
     0
 90
        0
176
     0
290
     0
176
     0
 90
        1
176
     0
 40
0.0
176
     0
 90
        0
176
     0
290
     0
176
     0
290
     1
176
     0
290
     1
176
     0
290
     0
176
     0
290
     0
176
     0
290
     0
176
     0
290
     0
176
     0
290
     0
176
     0
290
     0
176
     0
 90
       50
176
     0
 40
0.0
176
     0
 40
1.0
176
     0
 90
        0
176
     0
 62
    18
420
        0
176
     0
 90
       50
176
     0
 90
        3
176
     0
 62
     5
420
      255
176
     0
290
     0
176
     0
 90
       50
176
     0
 90
       50
176
     0
 90
       50
176
     0
290
     0
176
     0
 90
       50
176
     0
 62
   256
176
     0
 40
1.0
176
     0
 90
        2
176
     0
  1
strokes_ogs.tif
176
     0
290
     0
176
     0
 40
1.0
176
     0
 40
1.0
176
     0
  0
VISUALSTYLE
  5
38
102
{ACAD_REACTORS
330
29
102
}
330
29
100
AcDbVisualStyle
  2
Facepattern
 70
    15
177
     3
291
     1
 70
    58
 90
        2
176
     1
 90
        2
176
     1
 90
        0
176
     1
 90
        0
176
     1
 40
0.6
176
     1
 40
30.0
176
     1
 62
     7
420
 16777215
176
     1
 90
        1
176
     1
 90
        4
176
     1
 62
     7
176
     1
 62
   257
176
     1
 90
        1
176
     1
 90
        1
176
     1
 40
1.0
176
     1
 90
        8
176
     1
 62
     7
176
     1
 40
1.0
176
     1
 90
        1
176
     1
 90
        6
176
     1
 90
        2
176
     1
 62
     7
176
     1
 90
        5
176
     1
 90
        0
176
     1
 90
        0
176
     1
290
     0
176
     1
 90
        1
176
     1
 40
0.0
176
     1
 90
        0
176
     1
290
     0
176
     1
290
     1
176
     1
290
     1
176
     1
290
     0
176
     1
290
     0
176
     1
290
     0
176
     1
290
     0
176
     1
290
     0
176
     1
290
     0
176
     1
 90
       50
176
     1
 40
0.0
176
     1
 40
1.0
176
     1
 90
        0
176
     1
 62
    18
420
        0
176
     1
 90
       50
176
     1
 90
        3
176
     1
 62
     5
420
      255
176
     1
290
     0
176
     1
 90
       50
176
     1
 90
       50
176
     1
 90
       50
176
     1
290
     0
176
     1
 90
       50
176
     1
 62
   256
176
     0
 40
1.0
176
     0
 90
        2
176
     1
  1
strokes_ogs.tif
176
     1
290
     0
176
     1
 40
1.0
176
     1
 40
1.0
176
     1
  0
VISUALSTYLE
  5
2A
102
{ACAD_REACTORS
330
29
102
}
330
29
100
AcDbVisualStyle
  2
Flat
 70
     0
177
     3
291
     1
 70
    58
 90
        2
176
     1
 90
        1
176
     1
 90
        1
176
     1
 90
        2
176
     1
 40
0.6
176
     1
 40
30.0
176
     1
 62
     7
420
 16777215
176
     1
 90
        0
176
     1
 90
        0
176
     1
 62
     7
176
     1
 62
   257
176
     1
 90
        1
176
     1
 90
        1
176
     1
 40
1.0
176
     1
 90
        8
176
     1
 62
     7
176
     1
 40
1.0
176
     1
 90
        1
176
     1
 90
        6
176
     1
 90
        2
176
     1
 62
     7
176
     1
 90
        5
176
     1
 90
        0
176
     1
 90
        0
176
     1
290
     0
176
     1
 90
       13
176
     1
 40
0.0
176
     1
 90
        0
176
     1
290
     0
176
     1
290
     1
176
     1
290
     1
176
     1
290
     0
176
     1
290
     0
176
     1
290
     0
176
     1
290
     0
176
     1
290
     0
176
     1
290
     0
176
     1
 90
       50
176
     1
 40
0.0
176
     1
 40
1.0
176
     1
 90
        0
176
     1
 62
    18
420
        0
176
     1
 90
       50
176
     1
 90
        3
176
     1
 62
     5
420
      255
176
     1
290
     0
176
     1
 90
       50
176
     1
 90
       50
176
     1
 90
       50
176
     1
290
     0
176
     1
 90
       50
176
     1
 62
   256
176
     0
 40
1.0
176
     0
 90
        2
176
     1
  1
strokes_ogs.tif
176
     1
290
     0
176
     1
 40
1.0
176
     1
 40
1.0
176
     1
  0
VISUALSTYLE
  5
2B
102
{ACAD_REACTORS
330
29
102
}
330
29
100
AcDbVisualStyle
  2
FlatWithEdges
 70
     1
177
     3
291
     1
 70
    58
 90
        2
176
     1
 90
        1
176
     1
 90
        1
176
     1
 90
        2
176
     1
 40
0.6
176
     1
 40
30.0
176
     1
 62
     7
420
 16777215
176
     1
 90
        1
176
     1
 90
        0
176
     1
 62
     7
176
     1
 62
   257
176
     1
 90
        1
176
     1
 90
        1
176
     1
 40
1.0
176
     1
 90
        0
176
     1
 62
   257
176
     1
 40
1.0
176
     1
 90
        1
176
     1
 90
        6
176
     1
 90
        2
176
     1
 62
     7
176
     1
 90
        5
176
     1
 90
        0
176
     1
 90
        0
176
     1
290
     0
176
     1
 90
       13
176
     1
 40
0.0
176
     1
 90
        0
176
     1
290
     0
176
     1
290
     1
176
     1
290
     1
176
     1
290
     0
176
     1
290
     0
176
     1
290
     0
176
     1
290
     0
176
     1
290
     0
176
     1
290
     0
176
     1
 90
       50
176
     1
 40
0.0
176
     1
 40
1.0
176
     1
 90
        0
176
     1
 62
    18
420
        0
176
     1
 90
       50
176
     1
 90
        3
176
     1
 62
     5
420
      255
176
     1
290
     0
176
     1
 90
       50
176
     1
 90
       50
176
     1
 90
       50
176
     1
290
     0
176
     1
 90
       50
176
     1
 62
   256
176
     0
 40
1.0
176
     0
 90
        2
176
     1
  1
strokes_ogs.tif
176
     1
290
     0
176
     1
 40
1.0
176
     1
 40
1.0
176
     1
  0
VISUALSTYLE
  5
2C
102
{ACAD_REACTORS
330
29
102
}
330
29
100
AcDbVisualStyle
  2
Gouraud
 70
     2
177
     3
291
     1
 70
    58
 90
        2
176
     1
 90
        2
176
     1
 90
        1
176
     1
 90
        2
176
     1
 40
0.6
176
     1
 40
30.0
176
     1
 62
     7
420
 16777215
176
     1
 90
        0
176
     1
 90
        0
176
     1
 62
     7
176
     1
 62
   257
176
     1
 90
        1
176
     1
 90
        1
176
     1
 40
1.0
176
     1
 90
        0
176
     1
 62
     7
176
     1
 40
1.0
176
     1
 90
        1
176
     1
 90
        6
176
     1
 90
        2
176
     1
 62
     7
176
     1
 90
        5
176
     1
 90
        0
176
     1
 90
        0
176
     1
290
     0
176
     1
 90
       13
176
     1
 40
0.0
176
     1
 90
        0
176
     1
290
     0
176
     1
290
     1
176
     1
290
     1
176
     1
290
     0
176
     1
290
     0
176
     1
290
     0
176
     1
290
     0
176
     1
290
     0
176
     1
290
     0
176
     1
 90
       50
176
     1
 40
0.0
176
     1
 40
1.0
176
     1
 90
        0
176
     1
 62
    18
420
        0
176
     1
 90
       50
176
     1
 90
        3
176
     1
 62
     5
420
      255
176
     1
290
     0
176
     1
 90
       50
176
     1
 90
       50
176
     1
 90
       50
176
     1
290
     0
176
     1
 90
       50
176
     1
 62
   256
176
     0
 40
1.0
176
     0
 90
        2
176
     1
  1
strokes_ogs.tif
176
     1
290
     0
176
     1
 40
1.0
176
     1
 40
1.0
176
     1
  0
VISUALSTYLE
  5
2D
102
{ACAD_REACTORS
330
29
102
}
330
29
100
AcDbVisualStyle
  2
GouraudWithEdges
 70
     3
177
     3
291
     1
 70
    58
 90
        2
176
     1
 90
        2
176
     1
 90
        1
176
     1
 90
        2
176
     1
 40
0.6
176
     1
 40
30.0
176
     1
 62
     7
420
 16777215
176
     1
 90
        1
176
     1
 90
        0
176
     1
 62
     7
176
     1
 62
   257
176
     1
 90
        1
176
     1
 90
        1
176
     1
 40
1.0
176
     1
 90
        0
176
     1
 62
   257
176
     1
 40
1.0
176
     1
 90
        1
176
     1
 90
        6
176
     1
 90
        2
176
     1
 62
     7
176
     1
 90
        5
176
     1
 90
        0
176
     1
 90
        0
176
     1
290
     0
176
     1
 90
       13
176
     1
 40
0.0
176
     1
 90
        0
176
     1
290
     0
176
     1
290
     1
176
     1
290
     1
176
     1
290
     0
176
     1
290
     0
176
     1
290
     0
176
     1
290
     0
176
     1
290
     0
176
     1
290
     0
176
     1
 90
       50
176
     1
 40
0.0
176
     1
 40
1.0
176
     1
 90
        0
176
     1
 62
    18
420
        0
176
     1
 90
       50
176
     1
 90
        3
176
     1
 62
     5
420
      255
176
     1
290
     0
176
     1
 90
       50
176
     1
 90
       50
176
     1
 90
       50
176
     1
290
     0
176
     1
 90
       50
176
     1
 62
   256
176
     0
 40
1.0
176
     0
 90
        2
176
     1
  1
strokes_ogs.tif
176
     1
290
     0
176
     1
 40
1.0
176
     1
 40
1.0
176
     1
  0
VISUALSTYLE
  5
31
102
{ACAD_REACTORS
330
29
102
}
330
29
100
AcDbVisualStyle
  2
Hidden
 70
     6
177
     3
291
     0
 70
    58
 90
        1
176
     1
 90
        2
176
     1
 90
        2
176
     1
 90
        0
176
     1
 40
0.6
176
     1
 40
30.0
176
     1
 62
     7
420
 16777215
176
     1
 90
        2
176
     1
 90
        2
176
     1
 62
     7
176
     1
 62
   257
176
     1
 90
        2
176
     1
 90
        1
176
     1
 40
40.0
176
     1
 90
        0
176
     1
 62
   257
176
     1
 40
1.0
176
     1
 90
        1
176
     1
 90
        6
176
     1
 90
        2
176
     1
 62
     7
176
     1
 90
        3
176
     1
 90
        0
176
     1
 90
        0
176
     1
290
     0
176
     1
 90
        1
176
     1
 40
0.0
176
     1
 90
        0
176
     1
290
     0
176
     1
290
     1
176
     1
290
     1
176
     1
290
     0
176
     1
290
     0
176
     1
290
     0
176
     1
290
     0
176
     1
290
     0
176
     1
290
     0
176
     1
 90
       50
176
     1
 40
0.0
176
     1
 40
1.0
176
     1
 90
        0
176
     1
 62
    18
420
        0
176
     1
 90
       50
176
     1
 90
        3
176
     1
 62
     5
420
      255
176
     1
290
     0
176
     1
 90
       50
176
     1
 90
       50
176
     1
 90
       50
176
     1
290
     0
176
     1
 90
       50
176
     1
 62
   256
176
     0
 40
1.0
176
     0
 90
        2
176
     1
  1
strokes_ogs.tif
176
     1
290
     0
176
     1
 40
1.0
176
     1
 40
1.0
176
     1
  0
VISUALSTYLE
  5
3F
102
{ACAD_REACTORS
330
29
102
}
330
29
100
AcDbVisualStyle
  2
JitterOff
 70
    20
177
     3
291
     1
 70
    58
 90
        2
176
     0
 90
        2
176
     0
 90
        0
176
     0
 90
        0
176
     0
 40
0.6
176
     0
 40
30.0
176
     0
 62
     7
420
 16777215
176
     0
 90
        1
176
     0
 90
        4
176
     0
 62
     7
176
     0
 62
   257
176
     0
 90
        1
176
     0
 90
        1
176
     0
 40
1.0
176
     0
 90
       10
176
     2
 62
     7
176
     0
 40
1.0
176
     0
 90
        1
176
     0
 90
        6
176
     0
 90
        2
176
     0
 62
     7
176
     0
 90
        5
176
     0
 90
        0
176
     0
 90
        0
176
     0
290
     0
176
     0
 90
        1
176
     0
 40
0.0
176
     0
 90
        0
176
     0
290
     0
176
     0
290
     1
176
     0
290
     1
176
     0
290
     0
176
     0
290
     0
176
     0
290
     0
176
     0
290
     0
176
     0
290
     0
176
     0
290
     0
176
     0
 90
       50
176
     0
 40
0.0
176
     0
 40
1.0
176
     0
 90
        0
176
     0
 62
    18
420
        0
176
     0
 90
       50
176
     0
 90
        3
176
     0
 62
     5
420
      255
176
     0
290
     0
176
     0
 90
       50
176
     0
 90
       50
176
     0
 90
       50
176
     0
290
     0
176
     0
 90
       50
176
     0
 62
   256
176
     0
 40
1.0
176
     0
 90
        2
176
     0
  1
strokes_ogs.tif
176
     0
290
     0
176
     0
 40
1.0
176
     0
 40
1.0
176
     0
  0
VISUALSTYLE
  5
37
102
{ACAD_REACTORS
330
29
102
}
330
29
100
AcDbVisualStyle
  2
Linepattern
 70
    14
177
     3
291
     1
 70
    58
 90
        2
176
     1
 90
        2
176
     1
 90
        0
176
     1
 90
        0
176
     1
 40
0.6
176
     1
 40
30.0
176
     1
 62
     7
420
 16777215
176
     1
 90
        1
176
     1
 90
        4
176
     1
 62
     7
176
     1
 62
   257
176
     1
 90
        7
176
     1
 90
        7
176
     1
 40
1.0
176
     1
 90
        8
176
     1
 62
     7
176
     1
 40
1.0
176
     1
 90
        1
176
     1
 90
        6
176
     1
 90
        2
176
     1
 62
     7
176
     1
 90
        5
176
     1
 90
        0
176
     1
 90
        0
176
     1
290
     0
176
     1
 90
        1
176
     1
 40
0.0
176
     1
 90
        0
176
     1
290
     0
176
     1
290
     1
176
     1
290
     1
176
     1
290
     0
176
     1
290
     0
176
     1
290
     0
176
     1
290
     0
176
     1
290
     0
176
     1
290
     0
176
     1
 90
       50
176
     1
 40
0.0
176
     1
 40
1.0
176
     1
 90
        0
176
     1
 62
    18
420
        0
176
     1
 90
       50
176
     1
 90
        3
176
     1
 62
     5
420
      255
176
     1
290
     0
176
     1
 90
       50
176
     1
 90
       50
176
     1
 90
       50
176
     1
290
     0
176
     1
 90
       50
176
     1
 62
   256
176
     0
 40
1.0
176
     0
 90
        2
176
     1
  1
strokes_ogs.tif
176
     1
290
     0
176
     1
 40
1.0
176
     1
 40
1.0
176
     1
  0
VISUALSTYLE
  5
40
102
{ACAD_REACTORS
330
29
102
}
330
29
100
AcDbVisualStyle
  2
OverhangOff
 70
    21
177
     3
291
     1
 70
    58
 90
        2
176
     0
 90
        2
176
     0
 90
        0
176
     0
 90
        0
176
     0
 40
0.6
176
     0
 40
30.0
176
     0
 62
     7
420
 16777215
176
     0
 90
        1
176
     0
 90
        4
176
     0
 62
     7
176
     0
 62
   257
176
     0
 90
        1
176
     0
 90
        1
176
     0
 40
1.0
176
     0
 90
        9
176
     2
 62
     7
176
     0
 40
1.0
176
     0
 90
        1
176
     0
 90
        6
176
     0
 90
        2
176
     0
 62
     7
176
     0
 90
        5
176
     0
 90
        0
176
     0
 90
        0
176
     0
290
     0
176
     0
 90
        1
176
     0
 40
0.0
176
     0
 90
        0
176
     0
290
     0
176
     0
290
     1
176
     0
290
     1
176
     0
290
     0
176
     0
290
     0
176
     0
290
     0
176
     0
290
     0
176
     0
290
     0
176
     0
290
     0
176
     0
 90
       50
176
     0
 40
0.0
176
     0
 40
1.0
176
     0
 90
        0
176
     0
 62
    18
420
        0
176
     0
 90
       50
176
     0
 90
        3
176
     0
 62
     5
420
      255
176
     0
290
     0
176
     0
 90
       50
176
     0
 90
       50
176
     0
 90
       50
176
     0
290
     0
176
     0
 90
       50
176
     0
 62
   256
176
     0
 40
1.0
176
     0
 90
        2
176
     0
  1
strokes_ogs.tif
176
     0
290
     0
176
     0
 40
1.0
176
     0
 40
1.0
176
     0
  0
VISUALSTYLE
  5
33
102
{ACAD_REACTORS
330
29
102
}
330
29
100
AcDbVisualStyle
  2
Realistic
 70
     8
177
     3
291
     0
 70
    58
 90
        2
176
     1
 90
        3
176
     1
 90
        0
176
     1
 90
        2
176
     1
 40
0.6
176
     1
 40
30.0
176
     1
 62
     7
420
 16777215
176
     1
 90
        0
176
     1
 90
        0
176
     1
 62
     7
176
     1
 62
   257
176
     1
 90
        1
176
     1
 90
        1
176
     1
 40
1.0
176
     1
 90
        8
176
     1
 62
   257
176
     1
 40
1.0
176
     1
 90
        1
176
     1
 90
        6
176
     1
 90
        2
176
     1
 62
     7
176
     1
 90
        3
176
     1
 90
        0
176
     1
 90
        0
176
     1
290
     0
176
     1
 90
       13
176
     1
 40
0.0
176
     1
 90
        0
176
     1
290
     0
176
     1
290
     1
176
     1
290
     1
176
     1
290
     0
176
     1
290
     0
176
     1
290
     0
176
     1
290
     0
176
     1
290
     0
176
     1
290
     0
176
     1
 90
       50
176
     1
 40
0.0
176
     1
 40
1.0
176
     1
 90
        0
176
     1
 62
    18
420
        0
176
     1
 90
       50
176
     1
 90
        3
176
     1
 62
     5
420
      255
176
     1
290
     0
176
     1
 90
       50
176
     1
 90
       50
176
     1
 90
       50
176
     1
290
     0
176
     1
 90
       50
176
     1
 62
   256
176
     0
 40
1.0
176
     0
 90
        2
176
     1
  1
strokes_ogs.tif
176
     1
290
     0
176
     1
 40
1.0
176
     1
 40
1.0
176
     1
  0
VISUALSTYLE
  5
3E
102
{ACAD_REACTORS
330
29
102
}
330
29
100
AcDbVisualStyle
  2
Shaded
 70
    27
177
     3
291
     0
 70
    58
 90
        2
176
     1
 90
        2
176
     1
 90
        1
176
     1
 90
        2
176
     1
 40
0.6
176
     1
 40
30.0
176
     1
 62
     7
420
 16777215
176
     1
 90
        0
176
     1
 90
        4
176
     1
 62
     7
176
     1
 62
   257
176
     1
 90
        1
176
     1
 90
        1
176
     1
 40
1.0
176
     1
 90
        8
176
     1
 62
   257
176
     1
 40
1.0
176
     1
 90
        1
176
     1
 90
        6
176
     1
 90
        2
176
     1
 62
     8
420
  7895160
176
     1
 90
        3
176
     1
 90
        0
176
     1
 90
        0
176
     1
290
     0
176
     1
 90
        5
176
     1
 40
0.0
176
     1
 90
        0
176
     1
290
     0
176
     1
290
     1
176
     1
290
     1
176
     1
290
     0
176
     1
290
     0
176
     1
290
     0
176
     1
290
     0
176
     1
290
     0
176
     1
290
     0
176
     1
 90
       50
176
     1
 40
0.0
176
     1
 40
1.0
176
     1
 90
        0
176
     1
 62
    18
420
        0
176
     1
 90
       50
176
     1
 90
        3
176
     1
 62
     5
420
      255
176
     1
290
     0
176
     1
 90
       50
176
     1
 90
       50
176
     1
 90
       50
176
     1
290
     0
176
     1
 90
       50
176
     1
 62
   256
176
     0
 40
1.0
176
     0
 90
        2
176
     1
  1
strokes_ogs.tif
176
     1
290
     0
176
     1
 40
1.0
176
     1
 40
1.0
176
     1
  0
VISUALSTYLE
  5
3D
102
{ACAD_REACTORS
330
29
102
}
330
29
100
AcDbVisualStyle
  2
Shaded with edges
 70
    26
177
     3
291
     0
 70
    58
 90
        2
176
     1
 90
        2
176
     1
 90
        1
176
     1
 90
        2
176
     1
 40
0.6
176
     1
 40
30.0
176
     1
 62
     7
420
 16777215
176
     1
 90
        1
176
     1
 90
        2
176
     1
 62
     7
176
     1
 62
   257
176
     1
 90
        2
176
     1
 90
        1
176
     1
 40
1.0
176
     1
 90
        8
176
     1
 62
   257
176
     1
 40
1.0
176
     1
 90
        1
176
     1
 90
        6
176
     1
 90
        2
176
     1
 62
     7
176
     1
 90
        3
176
     1
 90
        0
176
     1
 90
        0
176
     1
290
     0
176
     1
 90
        5
176
     1
 40
0.0
176
     1
 90
        0
176
     1
290
     0
176
     1
290
     1
176
     1
290
     1
176
     1
290
     0
176
     1
290
     0
176
     1
290
     0
176
     1
290
     0
176
     1
290
     0
176
     1
290
     0
176
     1
 90
       50
176
     1
 40
0.0
176
     1
 40
1.0
176
     1
 90
        0
176
     1
 62
    18
420
        0
176
     1
 90
       50
176
     1
 90
        3
176
     1
 62
     5
420
      255
176
     1
290
     0
176
     1
 90
       50
176
     1
 90
       50
176
     1
 90
       50
176
     1
290
     0
176
     1
 90
       50
176
     1
 62
   256
176
     0
 40
1.0
176
     0
 90
        2
176
     1
  1
strokes_ogs.tif
176
     1
290
     0
176
     1
 40
1.0
176
     1
 40
1.0
176
     1
  0
VISUALSTYLE
  5
3A
102
{ACAD_REACTORS
330
29
102
}
330
29
100
AcDbVisualStyle
  2
Shades of Gray
 70
    23
177
     3
291
     0
 70
    58
 90
        2
176
     1
 90
        2
176
     1
 90
        3
176
     1
 90
        0
176
     1
 40
0.6
176
     1
 40
30.0
176
     1
 62
     7
420
 16777215
176
     1
 90
        2
176
     1
 90
        2
176
     1
 62
     7
176
     1
 62
     7
176
     1
 90
        1
176
     1
 90
        1
176
     1
 40
40.0
176
     1
 90
        8
176
     1
 62
     7
176
     1
 40
1.0
176
     1
 90
        1
176
     1
 90
        6
176
     1
 90
        2
176
     1
 62
     7
176
     1
 90
        3
176
     1
 90
        0
176
     1
 90
        0
176
     1
290
     0
176
     1
 90
        1
176
     1
 40
0.0
176
     1
 90
        0
176
     1
290
     0
176
     1
290
     1
176
     1
290
     1
176
     1
290
     0
176
     1
290
     0
176
     1
290
     0
176
     1
290
     0
176
     1
290
     0
176
     1
290
     0
176
     1
 90
       50
176
     1
 40
0.0
176
     1
 40
1.0
176
     1
 90
        0
176
     1
 62
    18
420
        0
176
     1
 90
       50
176
     1
 90
        3
176
     1
 62
     5
420
      255
176
     1
290
     0
176
     1
 90
       50
176
     1
 90
       50
176
     1
 90
       50
176
     1
290
     0
176
     1
 90
       50
176
     1
 62
   256
176
     0
 40
1.0
176
     0
 90
        2
176
     1
  1
strokes_ogs.tif
176
     1
290
     0
176
     1
 40
1.0
176
     1
 40
1.0
176
     1
  0
VISUALSTYLE
  5
3B
102
{ACAD_REACTORS
330
29
102
}
330
29
100
AcDbVisualStyle
  2
Sketchy
 70
    24
177
     3
291
     0
 70
    58
 90
        1
176
     1
 90
        2
176
     1
 90
        2
176
     1
 90
        0
176
     1
 40
0.6
176
     1
 40
30.0
176
     1
 62
     7
420
 16777215
176
     1
 90
        2
176
     1
 90
        2
176
     1
 62
     7
176
     1
 62
     7
176
     1
 90
        1
176
     1
 90
        1
176
     1
 40
40.0
176
     1
 90
       11
176
     1
 62
     7
176
     1
 40
1.0
176
     1
 90
        1
176
     1
 90
        6
176
     1
 90
        2
176
     1
 62
     7
176
     1
 90
        6
176
     1
 90
        0
176
     1
 90
        0
176
     1
290
     0
176
     1
 90
        1
176
     1
 40
0.0
176
     1
 90
        0
176
     1
290
     0
176
     1
290
     1
176
     1
290
     1
176
     1
290
     0
176
     1
290
     0
176
     1
290
     0
176
     1
290
     0
176
     1
290
     0
176
     1
290
     0
176
     1
 90
       50
176
     1
 40
0.0
176
     1
 40
1.0
176
     1
 90
        0
176
     1
 62
    18
420
        0
176
     1
 90
       50
176
     1
 90
        3
176
     1
 62
     5
420
      255
176
     1
290
     0
176
     1
 90
       50
176
     1
 90
       50
176
     1
 90
       50
176
     1
290
     0
176
     1
 90
       50
176
     1
 62
   256
176
     0
 40
1.0
176
     0
 90
        2
176
     1
  1
strokes_ogs.tif
176
     1
290
     0
176
     1
 40
1.0
176
     1
 40
1.0
176
     1
  0
VISUALSTYLE
  5
36
102
{ACAD_REACTORS
330
29
102
}
330
29
100
AcDbVisualStyle
  2
Thicken
 70
    13
177
     3
291
     1
 70
    58
 90
        2
176
     1
 90
        2
176
     1
 90
        0
176
     1
 90
        0
176
     1
 40
0.6
176
     1
 40
30.0
176
     1
 62
     7
420
 16777215
176
     1
 90
        1
176
     1
 90
        4
176
     1
 62
     7
176
     1
 62
   257
176
     1
 90
        1
176
     1
 90
        1
176
     1
 40
1.0
176
     1
 90
       12
176
     1
 62
     7
176
     1
 40
1.0
176
     1
 90
        1
176
     1
 90
        6
176
     1
 90
        2
176
     1
 62
     7
176
     1
 90
        5
176
     1
 90
        0
176
     1
 90
        0
176
     1
290
     0
176
     1
 90
        1
176
     1
 40
0.0
176
     1
 90
        0
176
     1
290
     0
176
     1
290
     1
176
     1
290
     1
176
     1
290
     0
176
     1
290
     0
176
     1
290
     0
176
     1
290
     0
176
     1
290
     0
176
     1
290
     0
176
     1
 90
       50
176
     1
 40
0.0
176
     1
 40
1.0
176
     1
 90
        0
176
     1
 62
    18
420
        0
176
     1
 90
       50
176
     1
 90
        3
176
     1
 62
     5
420
      255
176
     1
290
     0
176
     1
 90
       50
176
     1
 90
       50
176
     1
 90
       50
176
     1
290
     0
176
     1
 90
       50
176
     1
 62
   256
176
     0
 40
1.0
176
     0
 90
        2
176
     1
  1
strokes_ogs.tif
176
     1
290
     0
176
     1
 40
1.0
176
     1
 40
1.0
176
     1
  0
VISUALSTYLE
  5
30
102
{ACAD_REACTORS
330
29
102
}
330
29
100
AcDbVisualStyle
  2
Wireframe
 70
     5
177
     3
291
     0
 70
    58
 90
        0
176
     1
 90
        2
176
     1
 90
        0
176
     1
 90
        0
176
     1
 40
0.6
176
     1
 40
30.0
176
     1
 62
     7
420
 16777215
176
     1
 90
        1
176
     1
 90
        4
176
     1
 62
     7
176
     1
 62
   257
176
     1
 90
        1
176
     1
 90
        1
176
     1
 40
1.0
176
     1
 90
        0
176
     1
 62
   257
176
     1
 40
1.0
176
     1
 90
        1
176
     1
 90
        6
176
     1
 90
        2
176
     1
 62
     7
176
     1
 90
        3
176
     1
 90
        0
176
     1
 90
        0
176
     1
290
     0
176
     1
 90
        1
176
     1
 40
0.0
176
     1
 90
        0
176
     1
290
     0
176
     1
290
     1
176
     1
290
     1
176
     1
290
     0
176
     1
290
     0
176
     1
290
     0
176
     1
290
     0
176
     1
290
     0
176
     1
290
     0
176
     1
 90
       50
176
     1
 40
0.0
176
     1
 40
1.0
176
     1
 90
        0
176
     1
 62
    18
420
        0
176
     1
 90
       50
176
     1
 90
        3
176
     1
 62
     5
420
      255
176
     1
290
     0
176
     1
 90
       50
176
     1
 90
       50
176
     1
 90
       50
176
     1
290
     0
176
     1
 90
       50
176
     1
 62
   256
176
     0
 40
1.0
176
     0
 90
        2
176
     1
  1
strokes_ogs.tif
176
     1
290
     0
176
     1
 40
1.0
176
     1
 40
1.0
176
     1
  0
VISUALSTYLE
  5
3C
102
{ACAD_REACTORS
330
29
102
}
330
29
100
AcDbVisualStyle
  2
X-Ray
 70
    25
177
     3
291
     0
 70
    58
 90
        2
176
     1
 90
        2
176
     1
 90
        1
176
     1
 90
        1
176
     1
 40
0.5
176
     1
 40
30.0
176
     1
 62
     7
420
 16777215
176
     1
 90
        1
176
     1
 90
        0
176
     1
 62
     7
176
     1
 62
   257
176
     1
 90
        1
176
     1
 90
        1
176
     1
 40
1.0
176
     1
 90
        8
176
     1
 62
     7
176
     1
 40
1.0
176
     1
 90
        1
176
     1
 90
        6
176
     1
 90
        2
176
     1
 62
     7
176
     1
 90
        3
176
     1
 90
        0
176
     1
 90
        0
176
     1
290
     0
176
     1
 90
       13
176
     1
 40
0.0
176
     1
 90
        0
176
     1
290
     0
176
     1
290
     1
176
     1
290
     1
176
     1
290
     0
176
     1
290
     0
176
     1
290
     0
176
     1
290
     0
176
     1
290
     0
176
     1
290
     0
176
     1
 90
       50
176
     1
 40
0.0
176
     1
 40
1.0
176
     1
 90
        0
176
     1
 62
    18
420
        0
176
     1
 90
       50
176
     1
 90
        3
176
     1
 62
     5
420
      255
176
     1
290
     0
176
     1
 90
       50
176
     1
 90
       50
176
     1
 90
       50
176
     1
290
     0
176
     1
 90
       50
176
     1
 62
   256
176
     0
 40
1.0
176
     0
 90
        2
176
     1
  1
strokes_ogs.tif
176
     1
290
     0
176
     1
 40
1.0
176
     1
 40
1.0
176
     1
  0
DICTIONARYVAR
  5
80
102
{ACAD_REACTORS
330
7B
102
}
330
7B
100
DictionaryVariables
280
     0
  1
1:1
  0
DICTIONARYVAR
  5
7D
102
{ACAD_REACTORS
330
7B
102
}
330
7B
100
DictionaryVariables
280
     0
  1
STANDARD
  0
DICTIONARYVAR
  5
7C
102
{ACAD_REACTORS
330
7B
102
}
330
7B
100
DictionaryVariables
280
     0
  1
STANDARD
  0
DICTIONARYVAR
  5
7E
102
{ACAD_REACTORS
330
7B
102
}
330
7B
100
DictionaryVariables
280
     0
  1
Imperial24
  0
DICTIONARYVAR
  5
7F
102
{ACAD_REACTORS
330
7B
102
}
330
7B
100
DictionaryVariables
280
     0
  1
Imperial24
  0
XRECORD
  5
1C4
102
{ACAD_REACTORS
330
1BE
102
}
330
1BE
100
AcDbXrecord
280
     1
  1
BUILDING_ID
  1
Home_THIRD_ARCHI_0
  1
FLOOR_ID
  1
369
  0
XRECORD
  5
1C2
102
{ACAD_REACTORS
330
1BE
102
}
330
1BE
100
AcDbXrecord
280
     1
  1
-2000011
  1
Walls
  1
-2000032
  1
Floors
  0
XRECORD
  5
1BF
102
{ACAD_REACTORS
330
1BE
102
}
330
1BE
100
AcDbXrecord
280
     1
  1
d28deee7-5954-494f-82af-b46d8e167214
  0
XRECORD
  5
1C3
102
{ACAD_REACTORS
330
1BE
102
}
330
1BE
100
AcDbXrecord
280
     1
  1
-2000541
  1
Surface Pattern
  1
-2000588
  1
Cut Pattern
  0
XRECORD
  5
1C1
102
{ACAD_REACTORS
330
1BE
102
}
330
1BE
100
AcDbXrecord
280
     1
  1
1695
  1
Basic Wall : Exterior - Brick on Wood Stud : Exterior - Brick on Wood Stud
  1
1703
  1
Basic Wall : Generic - 8" Masonry : Generic - 8" Masonry
  1
620709
  1
Floor : Concrete Slab - 12" 2
  1
620756
  1
Floor : Wood Joist 12" - Wood Finish 2
  0
DICTIONARY
  5
1A
330
19
100
AcDbDictionary
280
     1
281
     1
  3
BUMPTILE
360
1C
  3
DIFFUSETILE
360
1B
  3
OPACITYTILE
360
1F
  3
REFLECTIONTILE
360
1E
  3
REFRACTIONTILE
360
20
  3
SPECULARTILE
360
1D
  0
DICTIONARY
  5
12
330
11
100
AcDbDictionary
280
     1
281
     1
  3
BUMPTILE
360
14
  3
DIFFUSETILE
360
13
  3
OPACITYTILE
360
17
  3
REFLECTIONTILE
360
16
  3
REFRACTIONTILE
360
18
  3
SPECULARTILE
360
15
  0
DICTIONARY
  5
22
330
21
100
AcDbDictionary
280
     1
281
     1
  3
BUMPTILE
360
24
  3
DIFFUSETILE
360
23
  3
OPACITYTILE
360
27
  3
REFLECTIONTILE
360
26
  3
REFRACTIONTILE
360
28
  3
SPECULARTILE
360
25
  0
DICTIONARY
  5
1C7
330
65
100
AcDbDictionary
280
     1
281
     1
  3
ACAD_ROUNDTRIP_2008_TABLESTYLE_CELLSTYLEMAP
360
1C8
  0
XRECORD
  5
1C
102
{ACAD_REACTORS
330
1A
102
}
330
1A
100
AcDbXrecord
280
     1
270
     1
271
     1
  0
XRECORD
  5
1B
102
{ACAD_REACTORS
330
1A
102
}
330
1A
100
AcDbXrecord
280
     1
270
     1
271
     1
  0
XRECORD
  5
1F
102
{ACAD_REACTORS
330
1A
102
}
330
1A
100
AcDbXrecord
280
     1
270
     1
271
     1
  0
XRECORD
  5
1E
102
{ACAD_REACTORS
330
1A
102
}
330
1A
100
AcDbXrecord
280
     1
270
     1
271
     1
  0
XRECORD
  5
20
102
{ACAD_REACTORS
330
1A
102
}
330
1A
100
AcDbXrecord
280
     1
270
     1
271
     1
  0
XRECORD
  5
1D
102
{ACAD_REACTORS
330
1A
102
}
330
1A
100
AcDbXrecord
280
     1
270
     1
271
     1
  0
XRECORD
  5
14
102
{ACAD_REACTORS
330
12
102
}
330
12
100
AcDbXrecord
280
     1
270
     1
271
     1
  0
XRECORD
  5
13
102
{ACAD_REACTORS
330
12
102
}
330
12
100
AcDbXrecord
280
     1
270
     1
271
     1
  0
XRECORD
  5
17
102
{ACAD_REACTORS
330
12
102
}
330
12
100
AcDbXrecord
280
     1
270
     1
271
     1
  0
XRECORD
  5
16
102
{ACAD_REACTORS
330
12
102
}
330
12
100
AcDbXrecord
280
     1
270
     1
271
     1
  0
XRECORD
  5
18
102
{ACAD_REACTORS
330
12
102
}
330
12
100
AcDbXrecord
280
     1
270
     1
271
     1
  0
XRECORD
  5
15
102
{ACAD_REACTORS
330
12
102
}
330
12
100
AcDbXrecord
280
     1
270
     1
271
     1
  0
XRECORD
  5
24
102
{ACAD_REACTORS
330
22
102
}
330
22
100
AcDbXrecord
280
     1
270
     1
271
     1
  0
XRECORD
  5
23
102
{ACAD_REACTORS
330
22
102
}
330
22
100
AcDbXrecord
280
     1
270
     1
271
     1
  0
XRECORD
  5
27
102
{ACAD_REACTORS
330
22
102
}
330
22
100
AcDbXrecord
280
     1
270
     1
271
     1
  0
XRECORD
  5
26
102
{ACAD_REACTORS
330
22
102
}
330
22
100
AcDbXrecord
280
     1
270
     1
271
     1
  0
XRECORD
  5
28
102
{ACAD_REACTORS
330
22
102
}
330
22
100
AcDbXrecord
280
     1
270
     1
271
     1
  0
XRECORD
  5
25
102
{ACAD_REACTORS
330
22
102
}
330
22
100
AcDbXrecord
280
     1
270
     1
271
     1
  0
CELLSTYLEMAP
  5
1C8
102
{ACAD_REACTORS
330
1C7
102
}
330
1C7
100
AcDbCellStyleMap
 90
        3
300
CELLSTYLE
  1
TABLEFORMAT_BEGIN
 90
        5
170
     1
 91
        0
 92
    32768
 62
   257
 93
        1
300
CONTENTFORMAT
  1
CONTENTFORMAT_BEGIN
 90
        0
 91
        0
 92
      512
 93
        0
300

 40
0.0
140
1.0
 94
        5
 62
     0
340
55
144
0.25
309
CONTENTFORMAT_END
171
     0
 94
        0
309
TABLEFORMAT_END
  1
CELLSTYLE_BEGIN
 90
        1
 91
        1
300
_TITLE
309
CELLSTYLE_END
300
CELLSTYLE
  1
TABLEFORMAT_BEGIN
 90
        5
170
     1
 91
        0
 92
        0
 62
   257
 93
        1
300
CONTENTFORMAT
  1
CONTENTFORMAT_BEGIN
 90
        0
 91
        0
 92
      512
 93
        0
300

 40
0.0
140
1.0
 94
        5
 62
     0
340
55
144
0.18
309
CONTENTFORMAT_END
171
     0
 94
        0
309
TABLEFORMAT_END
  1
CELLSTYLE_BEGIN
 90
        2
 91
        1
300
_HEADER
309
CELLSTYLE_END
300
CELLSTYLE
  1
TABLEFORMAT_BEGIN
 90
        5
170
     1
 91
        0
 92
        0
 62
   257
 93
        1
300
CONTENTFORMAT
  1
CONTENTFORMAT_BEGIN
 90
        0
 91
        0
 92
      512
 93
        0
300

 40
0.0
140
1.0
 94
        2
 62
     0
340
55
144
0.18
309
CONTENTFORMAT_END
171
     0
 94
        0
309
TABLEFORMAT_END
  1
CELLSTYLE_BEGIN
 90
        3
 91
        2
300
_DATA
309
CELLSTYLE_END
  0
ENDSEC
  0
EOF
